<svg xmlns="http://www.w3.org/2000/svg" xmlns:xlink="http://www.w3.org/1999/xlink" width="600" zoomAndPan="magnify" viewBox="0 0 450 449.999984" height="600" preserveAspectRatio="xMidYMid meet" version="1.0"><defs><clipPath id="9651e7337c"><path d="M 159 70 L 293 70 L 293 382.5 L 159 382.5 Z M 159 70 " clip-rule="nonzero"/></clipPath></defs><path fill="#ffffff" d="M 114.085938 338.132812 C 107.429688 338.132812 102.992188 335.914062 98.554688 331.480469 L 9.824219 242.746094 C 0.949219 233.875 0.949219 220.5625 9.824219 211.691406 L 98.554688 122.957031 C 107.429688 114.085938 120.738281 114.085938 129.613281 122.957031 C 138.484375 131.832031 138.484375 145.140625 129.613281 154.015625 L 56.410156 227.21875 L 129.613281 300.421875 C 138.484375 309.296875 138.484375 322.605469 129.613281 331.480469 C 125.175781 335.914062 120.738281 338.132812 114.085938 338.132812 Z M 114.085938 338.132812 " fill-opacity="1" fill-rule="nonzero"/><path fill="#ffffff" d="M 335.914062 338.132812 C 329.261719 338.132812 324.824219 335.914062 320.386719 331.480469 C 311.515625 322.605469 311.515625 309.296875 320.386719 300.421875 L 393.589844 227.21875 L 320.386719 154.015625 C 311.515625 145.140625 311.515625 131.832031 320.386719 122.957031 C 329.261719 114.085938 342.570312 114.085938 351.445312 122.957031 L 440.175781 211.691406 C 449.050781 220.5625 449.050781 233.875 440.175781 242.746094 L 351.445312 331.480469 C 347.007812 335.914062 342.570312 338.132812 335.914062 338.132812 Z M 335.914062 338.132812 " fill-opacity="1" fill-rule="nonzero"/><g clip-path="url(#9651e7337c)"><path fill="#ffffff" d="M 180.632812 382.5 C 178.414062 382.5 176.195312 382.5 173.980469 380.28125 C 162.886719 375.84375 156.230469 364.753906 160.667969 351.445312 L 249.402344 85.246094 C 253.839844 74.15625 264.929688 67.5 278.238281 71.9375 C 289.332031 76.375 295.984375 87.464844 291.550781 100.773438 L 202.816406 366.972656 C 198.378906 375.84375 189.507812 382.5 180.632812 382.5 Z M 180.632812 382.5 " fill-opacity="1" fill-rule="nonzero"/></g></svg>