<svg xmlns="http://www.w3.org/2000/svg" xmlns:xlink="http://www.w3.org/1999/xlink" width="600" zoomAndPan="magnify" viewBox="0 0 450 449.999984" height="600" preserveAspectRatio="xMidYMid meet" version="1.0"><defs><clipPath id="b41aae5666"><path d="M 159 70 L 293 70 L 293 382.5 L 159 382.5 Z M 159 70 " clip-rule="nonzero"/></clipPath></defs><path fill="#ffffff" d="M 114.085938 338.132812 C 107.429688 338.132812 102.992188 335.914062 98.554688 331.480469 L 9.824219 242.746094 C 0.949219 233.875 0.949219 220.5625 9.824219 211.691406 L 98.554688 122.957031 C 107.429688 114.085938 120.738281 114.085938 129.613281 122.957031 C 138.484375 131.832031 138.484375 145.140625 129.613281 154.015625 L 56.410156 227.21875 L 129.613281 300.421875 C 138.484375 309.296875 138.484375 322.605469 129.613281 331.480469 C 125.175781 335.914062 120.738281 338.132812 114.085938 338.132812 Z M 114.085938 338.132812 " fill-opacity="1" fill-rule="nonzero"/><path fill="#ffffff" d="M 335.914062 338.132812 C 329.261719 338.132812 324.824219 335.914062 320.386719 331.480469 C 311.515625 322.605469 311.515625 309.296875 320.386719 300.421875 L 393.589844 227.21875 L 320.386719 154.015625 C 311.515625 145.140625 311.515625 131.832031 320.386719 122.957031 C 329.261719 114.085938 342.570312 114.085938 351.445312 122.957031 L 440.175781 211.691406 C 449.050781 220.5625 449.050781 233.875 440.175781 242.746094 L 351.445312 331.480469 C 347.007812 335.914062 342.570312 338.132812 335.914062 338.132812 Z M 335.914062 338.132812 " fill-opacity="1" fill-rule="nonzero"/><g clip-path="url(#b41aae5666)"><path fill="#ffffff" d="M 180.632812 382.5 C 178.414062 382.5 176.195312 382.5 173.980469 380.28125 C 162.886719 375.84375 156.230469 364.753906 160.667969 351.445312 L 249.402344 85.246094 C 253.839844 74.15625 264.929688 67.5 278.238281 71.9375 C 289.332031 76.375 295.984375 87.464844 291.550781 100.773438 L 202.816406 366.972656 C 198.378906 375.84375 189.507812 382.5 180.632812 382.5 Z M 180.632812 382.5 " fill-opacity="1" fill-rule="nonzero"/></g><path fill="#ffffff" d="M 225 317.796875 C 173.746094 317.796875 132.203125 276.253906 132.203125 225 C 132.203125 173.746094 173.746094 132.203125 225 132.203125 C 276.253906 132.203125 317.796875 173.746094 317.796875 225 C 317.796875 276.253906 276.253906 317.796875 225 317.796875 Z M 437.851562 181.613281 L 396.304688 176.695312 C 392.550781 163.347656 387.226562 150.351562 380.304688 138.011719 L 406.1875 105.171875 C 410.507812 99.691406 410.042969 91.84375 405.109375 86.917969 L 363.082031 44.890625 C 358.152344 39.957031 350.308594 39.492188 344.828125 43.8125 L 311.988281 69.695312 C 299.648438 62.773438 286.648438 57.449219 273.304688 53.695312 L 268.390625 12.144531 C 267.566406 5.21875 261.695312 0 254.714844 0 L 195.28125 0 C 188.304688 0 182.433594 5.21875 181.613281 12.144531 L 176.695312 53.695312 C 163.347656 57.449219 150.351562 62.773438 138.011719 69.695312 L 105.167969 43.8125 C 99.691406 39.492188 91.847656 39.957031 86.914062 44.890625 L 44.890625 86.917969 C 39.957031 91.84375 39.492188 99.691406 43.8125 105.171875 L 69.695312 138.011719 C 62.773438 150.351562 57.445312 163.347656 53.695312 176.695312 L 12.144531 181.613281 C 5.21875 182.433594 0 188.304688 0 195.28125 L 0 254.714844 C 0 261.695312 5.21875 267.566406 12.144531 268.390625 L 53.695312 273.304688 C 57.445312 286.648438 62.773438 299.648438 69.695312 311.988281 L 43.8125 344.828125 C 39.492188 350.308594 39.957031 358.152344 44.890625 363.082031 L 86.914062 405.109375 C 91.847656 410.042969 99.691406 410.507812 105.167969 406.1875 L 138.011719 380.304688 C 150.351562 387.226562 163.347656 392.550781 176.695312 396.304688 L 181.613281 437.851562 C 182.433594 444.78125 188.304688 450 195.28125 450 L 253.734375 450 C 260.582031 450 266.394531 444.960938 267.359375 438.167969 L 273.304688 396.304688 C 286.648438 392.550781 299.648438 387.226562 311.988281 380.304688 L 344.828125 406.1875 C 350.308594 410.507812 358.152344 410.042969 363.082031 405.109375 L 405.109375 363.082031 C 410.042969 358.152344 410.507812 350.308594 406.1875 344.828125 L 380.304688 311.988281 C 387.226562 299.648438 392.550781 286.648438 396.304688 273.304688 L 437.851562 268.390625 C 444.78125 267.566406 450 261.695312 450 254.714844 L 450 195.28125 C 450 188.304688 444.78125 182.433594 437.851562 181.613281 " fill-opacity="1" fill-rule="nonzero"/></svg>