<svg xmlns="http://www.w3.org/2000/svg" xmlns:xlink="http://www.w3.org/1999/xlink" width="600" zoomAndPan="magnify" viewBox="0 0 450 449.999984" height="600" preserveAspectRatio="xMidYMid meet" version="1.0"><defs><clipPath id="71d1b6a39b"><path d="M 0 9.144531 L 431.800781 9.144531 L 431.800781 440.890625 L 0 440.890625 Z M 0 9.144531 " clip-rule="nonzero"/></clipPath></defs><path fill="#ffffff" d="M 418.191406 31.996094 C 413.375 31.996094 408.5 33.242188 404.050781 35.871094 C 300.910156 96.792969 227.664062 206.085938 194.011719 264.042969 L 139.023438 194.90625 C 133.523438 187.992188 125.40625 184.390625 117.207031 184.390625 C 111.132812 184.390625 105.007812 186.371094 99.878906 190.445312 C 87.84375 200.03125 85.839844 217.550781 95.417969 229.589844 L 176.664062 331.726562 C 181.980469 338.410156 190.03125 342.238281 198.457031 342.238281 C 199.5 342.238281 200.539062 342.183594 201.585938 342.0625 C 211.113281 340.988281 219.421875 335.085938 223.578125 326.4375 C 224.375 324.777344 304.953125 159.101562 432.382812 83.839844 C 445.628906 76.015625 450.023438 58.9375 442.199219 45.691406 C 436.996094 36.890625 427.71875 31.996094 418.191406 31.996094 " fill-opacity="1" fill-rule="nonzero"/><g clip-path="url(#71d1b6a39b)"><path fill="#ffffff" d="M 414.90625 139.492188 L 411.527344 140.632812 C 402.726562 147.671875 394.21875 155.113281 386.027344 162.820312 L 387.476562 167.117188 C 393.75 185.710938 396.929688 205.191406 396.929688 225.015625 C 396.929688 324.851562 315.710938 406.070312 215.875 406.070312 C 116.039062 406.070312 34.816406 324.851562 34.816406 225.015625 C 34.816406 167 62.949219 112.070312 110.070312 78.078125 C 141.003906 55.753906 177.59375 43.960938 215.875 43.960938 C 246.097656 43.960938 276 51.550781 302.359375 65.910156 L 304.769531 67.226562 C 313.839844 58.886719 323.25 50.761719 333 42.953125 L 319.015625 35.332031 C 287.566406 18.199219 251.898438 9.140625 215.875 9.140625 C 176.089844 9.140625 137.828125 19.839844 104.226562 40.21875 L 103.816406 39.652344 L 89.695312 49.839844 L 75.578125 60.023438 L 76.003906 60.613281 C 28.132812 101.433594 0 161.675781 0 225.015625 C 0 344.050781 96.839844 440.890625 215.875 440.890625 C 334.90625 440.890625 431.746094 344.050781 431.746094 225.015625 C 431.746094 201.394531 427.953125 178.171875 420.46875 155.988281 L 414.90625 139.492188 " fill-opacity="1" fill-rule="nonzero"/></g></svg>