<svg xmlns="http://www.w3.org/2000/svg" xmlns:xlink="http://www.w3.org/1999/xlink" width="600" zoomAndPan="magnify" viewBox="0 0 450 449.999984" height="600" preserveAspectRatio="xMidYMid meet" version="1.0"><path fill="#ffffff" d="M 389.816406 153.21875 C 392.007812 144.472656 393.109375 135.589844 393.113281 126.574219 C 393.117188 123.589844 393 120.609375 392.761719 117.636719 C 392.523438 114.664062 392.164062 111.703125 391.6875 108.757812 C 391.210938 105.8125 390.617188 102.890625 389.90625 99.992188 C 389.195312 97.09375 388.371094 94.230469 387.429688 91.398438 C 386.488281 88.570312 385.433594 85.78125 384.269531 83.035156 C 383.101562 80.285156 381.828125 77.589844 380.445312 74.949219 C 379.0625 72.304688 377.578125 69.71875 375.988281 67.195312 C 374.394531 64.671875 372.707031 62.214844 370.917969 59.824219 C 369.132812 57.4375 367.25 55.125 365.277344 52.886719 C 363.304688 50.648438 361.242188 48.496094 359.09375 46.421875 C 356.949219 44.351562 354.722656 42.367188 352.414062 40.476562 C 350.109375 38.582031 347.730469 36.785156 345.277344 35.085938 C 342.828125 33.382812 340.3125 31.785156 337.734375 30.285156 C 335.152344 28.785156 332.515625 27.390625 329.824219 26.105469 C 327.132812 24.816406 324.394531 23.640625 321.609375 22.574219 C 318.824219 21.507812 315.996094 20.554688 313.132812 19.714844 C 310.273438 18.875 307.378906 18.152344 304.457031 17.542969 C 301.535156 16.9375 298.597656 16.449219 295.636719 16.078125 C 292.675781 15.707031 289.703125 15.457031 286.722656 15.324219 C 283.742188 15.191406 280.761719 15.179688 277.78125 15.289062 C 274.796875 15.394531 271.824219 15.625 268.863281 15.96875 C 265.898438 16.316406 262.953125 16.78125 260.027344 17.367188 C 257.101562 17.949219 254.203125 18.652344 251.335938 19.46875 C 248.464844 20.285156 245.632812 21.214844 242.839844 22.261719 C 240.042969 23.304688 237.296875 24.460938 234.59375 25.726562 C 231.890625 26.992188 229.246094 28.363281 226.652344 29.839844 C 224.0625 31.320312 221.535156 32.898438 219.070312 34.582031 C 216.605469 36.261719 214.210938 38.042969 211.890625 39.914062 C 209.570312 41.789062 207.328125 43.753906 205.164062 45.808594 C 203 47.863281 200.921875 50 198.929688 52.222656 C 196.9375 54.445312 195.039062 56.742188 193.234375 59.117188 C 191.425781 61.492188 189.71875 63.933594 188.105469 66.445312 C 186.539062 65.695312 184.953125 64.992188 183.34375 64.34375 C 181.730469 63.691406 180.101562 63.089844 178.453125 62.542969 C 176.804688 61.996094 175.144531 61.5 173.464844 61.054688 C 171.785156 60.613281 170.09375 60.222656 168.386719 59.886719 C 166.683594 59.550781 164.972656 59.265625 163.25 59.039062 C 161.527344 58.808594 159.800781 58.636719 158.066406 58.515625 C 156.335938 58.398438 154.601562 58.332031 152.863281 58.324219 C 151.125 58.3125 149.390625 58.359375 147.65625 58.457031 C 145.921875 58.558594 144.191406 58.710938 142.46875 58.917969 C 140.746094 59.128906 139.027344 59.390625 137.320312 59.707031 C 135.613281 60.027344 133.917969 60.394531 132.234375 60.820312 C 130.546875 61.242188 128.878906 61.71875 127.222656 62.25 C 125.570312 62.78125 123.933594 63.359375 122.316406 63.992188 C 120.699219 64.625 119.101562 65.308594 117.527344 66.042969 C 115.953125 66.773438 114.402344 67.558594 112.878906 68.386719 C 111.355469 69.21875 109.855469 70.097656 108.386719 71.023438 C 106.917969 71.949219 105.476562 72.921875 104.070312 73.9375 C 102.660156 74.953125 101.285156 76.011719 99.945312 77.117188 C 98.601562 78.21875 97.296875 79.363281 96.027344 80.550781 C 94.757812 81.734375 93.527344 82.960938 92.335938 84.222656 C 91.144531 85.484375 89.992188 86.785156 88.882812 88.121094 C 87.773438 89.457031 86.707031 90.828125 85.679688 92.230469 C 84.65625 93.632812 83.679688 95.066406 82.746094 96.53125 C 81.8125 97.996094 80.925781 99.488281 80.089844 101.011719 C 79.25 102.53125 78.457031 104.078125 77.71875 105.648438 C 76.976562 107.21875 76.285156 108.8125 75.644531 110.425781 C 75.003906 112.039062 74.414062 113.671875 73.875 115.324219 C 73.335938 116.976562 72.851562 118.644531 72.417969 120.324219 C 71.988281 122.007812 71.609375 123.703125 71.28125 125.40625 C 70.957031 127.113281 70.683594 128.828125 70.46875 130.550781 C 70.25 132.273438 70.085938 134.003906 69.976562 135.738281 C 69.871094 137.46875 69.816406 139.207031 69.816406 140.941406 C 69.816406 143.425781 69.941406 145.9375 70.195312 148.476562 C 67.867188 149.207031 65.570312 150.039062 63.316406 150.972656 C 61.058594 151.90625 58.847656 152.941406 56.683594 154.070312 C 54.515625 155.199219 52.40625 156.425781 50.347656 157.742188 C 48.292969 159.058594 46.296875 160.464844 44.367188 161.960938 C 42.433594 163.457031 40.574219 165.03125 38.78125 166.691406 C 36.988281 168.351562 35.273438 170.089844 33.636719 171.902344 C 32 173.710938 30.445312 175.59375 28.976562 177.542969 C 27.503906 179.496094 26.125 181.503906 24.832031 183.578125 C 23.539062 185.652344 22.34375 187.777344 21.238281 189.957031 C 20.136719 192.136719 19.128906 194.359375 18.226562 196.628906 C 17.320312 198.894531 16.515625 201.199219 15.8125 203.539062 C 15.113281 205.878906 14.515625 208.246094 14.023438 210.636719 C 13.535156 213.03125 13.148438 215.4375 12.871094 217.867188 C 12.59375 220.292969 12.425781 222.726562 12.363281 225.167969 C 12.304688 227.609375 12.351562 230.050781 12.503906 232.488281 C 12.660156 234.925781 12.921875 237.351562 13.292969 239.765625 C 13.664062 242.179688 14.140625 244.570312 14.726562 246.945312 C 15.308594 249.316406 15.996094 251.65625 16.785156 253.96875 C 17.578125 256.277344 18.46875 258.550781 19.460938 260.78125 C 20.453125 263.011719 21.542969 265.195312 22.730469 267.332031 C 23.917969 269.464844 25.195312 271.542969 26.566406 273.566406 C 27.9375 275.585938 29.394531 277.542969 30.941406 279.4375 C 32.484375 281.328125 34.109375 283.148438 35.816406 284.894531 C 37.523438 286.644531 39.300781 288.3125 41.15625 289.902344 C 43.011719 291.492188 44.933594 292.996094 46.921875 294.414062 C 48.90625 295.835938 50.953125 297.164062 53.058594 298.398438 C 55.167969 299.636719 57.324219 300.777344 59.53125 301.824219 C 61.738281 302.871094 63.984375 303.816406 66.277344 304.664062 C 68.570312 305.507812 70.894531 306.253906 73.25 306.890625 C 75.605469 307.53125 77.988281 308.066406 80.390625 308.496094 C 82.796875 308.925781 85.214844 309.246094 87.648438 309.460938 C 90.082031 309.671875 92.519531 309.777344 94.960938 309.777344 L 184.765625 309.777344 L 184.765625 402.3125 L 160.054688 377.597656 L 144.820312 392.828125 L 195.542969 443.550781 L 246.265625 392.828125 L 231.035156 377.597656 L 206.320312 402.3125 L 206.320312 288.222656 L 94.960938 288.222656 C 93.074219 288.226562 91.191406 288.140625 89.3125 287.96875 C 87.433594 287.796875 85.566406 287.535156 83.710938 287.191406 C 81.855469 286.84375 80.019531 286.414062 78.207031 285.898438 C 76.390625 285.382812 74.605469 284.785156 72.84375 284.101562 C 71.085938 283.421875 69.359375 282.65625 67.671875 281.816406 C 65.984375 280.972656 64.335938 280.054688 62.734375 279.0625 C 61.128906 278.066406 59.574219 277 58.070312 275.859375 C 56.566406 274.722656 55.117188 273.515625 53.726562 272.242188 C 52.332031 270.96875 51.003906 269.632812 49.734375 268.234375 C 48.464844 266.839844 47.265625 265.386719 46.128906 263.878906 C 44.996094 262.367188 43.933594 260.8125 42.945312 259.203125 C 41.957031 257.597656 41.042969 255.949219 40.207031 254.253906 C 39.371094 252.5625 38.617188 250.835938 37.941406 249.074219 C 37.265625 247.3125 36.671875 245.523438 36.164062 243.707031 C 35.652344 241.890625 35.230469 240.054688 34.890625 238.195312 C 34.550781 236.339844 34.300781 234.472656 34.132812 232.59375 C 33.96875 230.710938 33.890625 228.828125 33.898438 226.941406 C 33.90625 225.054688 34.003906 223.171875 34.1875 221.292969 C 34.371094 219.417969 34.644531 217.550781 35 215.699219 C 35.355469 213.84375 35.800781 212.011719 36.328125 210.199219 C 36.855469 208.390625 37.464844 206.605469 38.15625 204.851562 C 38.851562 203.09375 39.621094 201.375 40.476562 199.691406 C 41.328125 198.007812 42.257812 196.367188 43.261719 194.769531 C 44.265625 193.171875 45.34375 191.625 46.492188 190.128906 C 47.640625 188.632812 48.855469 187.191406 50.136719 185.804688 C 51.417969 184.421875 52.761719 183.097656 54.167969 181.839844 C 55.570312 180.578125 57.03125 179.386719 58.546875 178.261719 C 60.0625 177.136719 61.628906 176.085938 63.242188 175.109375 C 64.855469 174.128906 66.507812 173.226562 68.207031 172.402344 C 69.902344 171.574219 71.632812 170.832031 73.402344 170.164062 C 75.167969 169.5 76.960938 168.917969 78.78125 168.421875 C 80.601562 167.921875 82.4375 167.511719 84.296875 167.183594 L 95.382812 165.21875 C 93.160156 157.273438 91.824219 149.179688 91.371094 140.941406 C 91.371094 138.941406 91.472656 136.949219 91.667969 134.957031 C 91.867188 132.96875 92.164062 130.992188 92.554688 129.03125 C 92.945312 127.074219 93.433594 125.136719 94.015625 123.222656 C 94.59375 121.308594 95.269531 119.429688 96.035156 117.582031 C 96.800781 115.734375 97.65625 113.929688 98.597656 112.167969 C 99.542969 110.40625 100.570312 108.691406 101.679688 107.03125 C 102.792969 105.367188 103.984375 103.765625 105.25 102.21875 C 106.519531 100.671875 107.859375 99.195312 109.273438 97.78125 C 110.6875 96.367188 112.167969 95.023438 113.714844 93.757812 C 115.257812 92.488281 116.863281 91.296875 118.523438 90.1875 C 120.1875 89.074219 121.898438 88.046875 123.664062 87.105469 C 125.425781 86.160156 127.230469 85.304688 129.078125 84.539062 C 130.925781 83.773438 132.804688 83.101562 134.71875 82.519531 C 136.628906 81.9375 138.566406 81.449219 140.527344 81.058594 C 142.488281 80.667969 144.464844 80.371094 146.453125 80.175781 C 148.445312 79.976562 150.4375 79.878906 152.4375 79.875 C 156.410156 80.144531 160.335938 80.710938 164.222656 81.570312 C 168.109375 82.433594 171.90625 83.582031 175.621094 85.011719 C 179.335938 86.445312 182.917969 88.148438 186.375 90.121094 C 189.832031 92.09375 193.121094 94.316406 196.246094 96.785156 L 201.734375 85.992188 C 202.863281 83.761719 204.082031 81.582031 205.394531 79.453125 C 206.707031 77.320312 208.105469 75.25 209.589844 73.238281 C 211.074219 71.226562 212.640625 69.277344 214.285156 67.394531 C 215.933594 65.515625 217.65625 63.703125 219.457031 61.964844 C 221.253906 60.230469 223.125 58.570312 225.0625 56.988281 C 227 55.40625 229 53.90625 231.0625 52.492188 C 233.125 51.078125 235.242188 49.753906 237.417969 48.515625 C 239.589844 47.277344 241.8125 46.132812 244.082031 45.082031 C 246.351562 44.03125 248.660156 43.078125 251.007812 42.21875 C 253.359375 41.359375 255.738281 40.601562 258.152344 39.941406 C 260.566406 39.28125 263 38.722656 265.460938 38.269531 C 267.917969 37.8125 270.394531 37.460938 272.882812 37.210938 C 275.371094 36.960938 277.867188 36.816406 280.367188 36.777344 C 282.867188 36.738281 285.367188 36.800781 287.859375 36.96875 C 290.355469 37.140625 292.839844 37.410156 295.3125 37.789062 C 297.785156 38.164062 300.238281 38.640625 302.671875 39.222656 C 305.105469 39.804688 307.507812 40.488281 309.882812 41.269531 C 312.257812 42.050781 314.597656 42.929688 316.898438 43.910156 C 319.203125 44.886719 321.460938 45.960938 323.671875 47.125 C 325.882812 48.292969 328.042969 49.550781 330.152344 50.894531 C 332.257812 52.242188 334.304688 53.675781 336.292969 55.195312 C 338.28125 56.710938 340.203125 58.3125 342.054688 59.988281 C 343.910156 61.667969 345.691406 63.421875 347.398438 65.25 C 349.105469 67.078125 350.734375 68.972656 352.28125 70.9375 C 353.832031 72.902344 355.296875 74.925781 356.675781 77.011719 C 358.054688 79.097656 359.34375 81.238281 360.546875 83.433594 C 361.746094 85.628906 362.851562 87.867188 363.867188 90.15625 C 364.878906 92.441406 365.796875 94.765625 366.613281 97.128906 C 367.433594 99.492188 368.152344 101.886719 368.769531 104.308594 C 369.390625 106.734375 369.90625 109.179688 370.320312 111.644531 C 370.734375 114.109375 371.046875 116.589844 371.253906 119.082031 C 371.460938 121.574219 371.5625 124.074219 371.5625 126.574219 C 370.929688 140.242188 368.074219 153.433594 363.003906 166.144531 L 373.230469 169.652344 C 374.925781 170.222656 376.59375 170.867188 378.234375 171.585938 C 379.871094 172.304688 381.476562 173.09375 383.042969 173.953125 C 384.613281 174.8125 386.140625 175.742188 387.628906 176.734375 C 389.117188 177.730469 390.554688 178.789062 391.949219 179.910156 C 393.34375 181.03125 394.6875 182.210938 395.976562 183.453125 C 397.265625 184.691406 398.5 185.988281 399.675781 187.335938 C 400.851562 188.683594 401.964844 190.082031 403.015625 191.527344 C 404.070312 192.976562 405.054688 194.464844 405.976562 196 C 406.898438 197.535156 407.75 199.105469 408.53125 200.714844 C 409.316406 202.324219 410.027344 203.964844 410.664062 205.636719 C 411.300781 207.304688 411.863281 209.003906 412.351562 210.722656 C 412.839844 212.445312 413.253906 214.183594 413.589844 215.941406 C 413.921875 217.699219 414.179688 219.46875 414.359375 221.25 C 414.539062 223.03125 414.636719 224.8125 414.660156 226.601562 C 414.683594 228.390625 414.625 230.179688 414.488281 231.960938 C 414.355469 233.746094 414.140625 235.519531 413.847656 237.285156 C 413.554688 239.050781 413.1875 240.800781 412.738281 242.53125 C 412.292969 244.265625 411.769531 245.976562 411.175781 247.660156 C 410.578125 249.347656 409.90625 251.003906 409.164062 252.632812 C 408.421875 254.261719 407.605469 255.851562 406.722656 257.40625 C 405.839844 258.964844 404.890625 260.476562 403.871094 261.949219 C 402.855469 263.421875 401.773438 264.847656 400.632812 266.222656 C 399.488281 267.601562 398.289062 268.921875 397.03125 270.195312 C 395.769531 271.464844 394.457031 272.679688 393.089844 273.832031 C 391.726562 274.988281 390.308594 276.082031 388.847656 277.113281 C 387.386719 278.140625 385.878906 279.105469 384.332031 280.003906 C 382.785156 280.902344 381.199219 281.730469 379.578125 282.488281 C 377.960938 283.246094 376.308594 283.929688 374.628906 284.542969 C 372.945312 285.15625 371.242188 285.695312 369.511719 286.15625 C 367.785156 286.617188 366.039062 287.003906 364.277344 287.3125 C 362.515625 287.621094 360.742188 287.851562 358.957031 288.003906 C 357.175781 288.15625 355.390625 288.226562 353.601562 288.222656 L 263.796875 288.222656 L 263.796875 195.695312 L 288.511719 220.410156 L 303.742188 205.171875 L 253.019531 154.449219 L 202.296875 205.171875 L 217.527344 220.402344 L 242.242188 195.6875 L 242.242188 309.777344 L 353.601562 309.777344 C 355.914062 309.78125 358.222656 309.691406 360.527344 309.5 C 362.832031 309.3125 365.125 309.027344 367.402344 308.644531 C 369.683594 308.261719 371.945312 307.785156 374.183594 307.214844 C 376.425781 306.640625 378.636719 305.976562 380.824219 305.21875 C 383.007812 304.460938 385.15625 303.609375 387.269531 302.671875 C 389.382812 301.734375 391.453125 300.707031 393.476562 299.59375 C 395.503906 298.480469 397.480469 297.28125 399.40625 296.003906 C 401.332031 294.722656 403.203125 293.367188 405.011719 291.929688 C 406.824219 290.492188 408.574219 288.980469 410.257812 287.398438 C 411.941406 285.8125 413.554688 284.160156 415.101562 282.441406 C 416.648438 280.722656 418.117188 278.9375 419.511719 277.09375 C 420.910156 275.25 422.222656 273.351562 423.460938 271.398438 C 424.695312 269.441406 425.847656 267.441406 426.914062 265.390625 C 427.980469 263.335938 428.960938 261.246094 429.851562 259.109375 C 430.742188 256.976562 431.542969 254.808594 432.25 252.609375 C 432.957031 250.40625 433.574219 248.179688 434.09375 245.929688 C 434.613281 243.675781 435.039062 241.40625 435.371094 239.117188 C 435.699219 236.828125 435.933594 234.527344 436.070312 232.21875 C 436.207031 229.914062 436.246094 227.601562 436.1875 225.289062 C 436.128906 222.980469 435.976562 220.675781 435.722656 218.375 C 435.472656 216.078125 435.121094 213.792969 434.679688 211.523438 C 434.234375 209.253906 433.695312 207.007812 433.0625 204.785156 C 432.429688 202.558594 431.703125 200.367188 430.886719 198.203125 C 430.070312 196.042969 429.160156 193.917969 428.164062 191.828125 C 427.167969 189.742188 426.085938 187.703125 424.917969 185.707031 C 423.75 183.710938 422.5 181.769531 421.167969 179.878906 C 419.835938 177.988281 418.425781 176.15625 416.941406 174.386719 C 415.453125 172.613281 413.894531 170.910156 412.265625 169.269531 C 410.636719 167.628906 408.941406 166.058594 407.179688 164.5625 C 405.417969 163.0625 403.597656 161.640625 401.714844 160.296875 C 399.832031 158.953125 397.898438 157.691406 395.910156 156.507812 C 393.921875 155.328125 391.890625 154.230469 389.808594 153.21875 Z M 389.816406 153.21875 " fill-opacity="1" fill-rule="nonzero"/></svg>