<svg xmlns="http://www.w3.org/2000/svg" xmlns:xlink="http://www.w3.org/1999/xlink" width="600" zoomAndPan="magnify" viewBox="0 0 450 449.999984" height="600" preserveAspectRatio="xMidYMid meet" version="1.0"><defs><clipPath id="4db6eb1bd2"><path d="M 3 0 L 447.75 0 L 447.75 450 L 3 450 Z M 3 0 " clip-rule="nonzero"/></clipPath></defs><g clip-path="url(#4db6eb1bd2)"><path fill="#545454" d="M 225.082031 0.0742188 C 220.84375 0.0742188 216.402344 0.207031 211.878906 0.46875 C 207.742188 0.710938 204.230469 3.585938 203.1875 7.585938 L 194.175781 41.957031 C 187.136719 43.140625 180.175781 44.722656 173.363281 46.695312 L 150.351562 19.621094 C 148.496094 17.4375 145.816406 16.246094 143.066406 16.246094 C 141.847656 16.246094 140.613281 16.484375 139.429688 16.96875 C 131.359375 20.292969 123.378906 24.144531 115.71875 28.414062 C 112.101562 30.429688 110.199219 34.542969 110.996094 38.605469 L 117.832031 73.46875 C 112.046875 77.570312 106.476562 82.019531 101.183594 86.765625 L 68.695312 72.355469 C 67.453125 71.800781 66.132812 71.535156 64.824219 71.535156 C 62.167969 71.535156 59.566406 72.640625 57.714844 74.699219 C 51.816406 81.265625 46.277344 88.203125 41.242188 95.328125 C 38.855469 98.707031 38.910156 103.234375 41.386719 106.558594 L 62.621094 135.011719 C 59.164062 141.253906 56.050781 147.699219 53.332031 154.289062 L 17.839844 155.402344 C 13.703125 155.535156 10.117188 158.316406 8.960938 162.292969 C 6.539062 170.644531 4.582031 179.285156 3.132812 187.984375 C 2.453125 192.066406 4.480469 196.125 8.152344 198.035156 L 39.667969 214.421875 C 39.449219 218.058594 39.339844 221.585938 39.339844 225.082031 C 39.339844 228.585938 39.449219 232.113281 39.667969 235.746094 L 8.152344 252.136719 C 4.480469 254.039062 2.453125 258.097656 3.132812 262.179688 C 4.582031 270.886719 6.539062 279.527344 8.960938 287.871094 C 10.117188 291.855469 13.703125 294.636719 17.839844 294.765625 L 53.332031 295.878906 C 56.058594 302.46875 59.164062 308.914062 62.621094 315.152344 L 41.386719 343.613281 C 38.910156 346.929688 38.855469 351.464844 41.242188 354.84375 C 46.28125 361.972656 51.820312 368.910156 57.714844 375.464844 C 59.566406 377.523438 62.167969 378.632812 64.824219 378.632812 C 66.132812 378.632812 67.453125 378.363281 68.695312 377.808594 L 101.183594 363.398438 C 106.476562 368.140625 112.046875 372.589844 117.832031 376.695312 L 110.996094 411.566406 C 110.191406 415.628906 112.109375 419.742188 115.722656 421.757812 C 123.402344 426.027344 131.375 429.871094 139.4375 433.195312 C 140.613281 433.679688 141.851562 433.917969 143.070312 433.917969 C 145.820312 433.917969 148.496094 432.726562 150.359375 430.542969 L 173.367188 403.46875 C 180.175781 405.441406 187.136719 407.023438 194.175781 408.207031 L 203.1875 442.578125 C 204.238281 446.585938 207.746094 449.460938 211.882812 449.695312 C 216.527344 449.957031 220.84375 450.089844 225.082031 450.089844 C 229.3125 450.089844 233.632812 449.957031 238.273438 449.695312 C 242.410156 449.460938 245.925781 446.578125 246.980469 442.570312 L 255.96875 408.207031 C 263.007812 407.023438 269.96875 405.441406 276.789062 403.46875 L 299.800781 430.542969 C 301.652344 432.726562 304.335938 433.917969 307.082031 433.917969 C 308.304688 433.917969 309.539062 433.679688 310.71875 433.195312 C 318.804688 429.859375 326.78125 426.015625 334.433594 421.75 C 338.046875 419.742188 339.960938 415.628906 339.164062 411.566406 L 332.324219 376.695312 C 338.105469 372.59375 343.671875 368.144531 348.976562 363.398438 L 381.457031 377.804688 C 382.707031 378.355469 384.027344 378.625 385.324219 378.625 C 387.976562 378.625 390.578125 377.523438 392.433594 375.464844 C 398.324219 368.917969 403.867188 361.980469 408.914062 354.84375 C 411.304688 351.464844 411.242188 346.929688 408.765625 343.613281 L 387.535156 315.15625 C 390.996094 308.921875 394.101562 302.476562 396.820312 295.878906 L 432.316406 294.765625 C 436.460938 294.636719 440.046875 291.847656 441.195312 287.871094 C 443.628906 279.476562 445.582031 270.835938 447.019531 262.179688 C 447.699219 258.097656 445.675781 254.039062 442.003906 252.136719 L 410.488281 235.742188 C 410.707031 232.101562 410.8125 228.578125 410.8125 225.082031 C 410.8125 221.589844 410.707031 218.0625 410.488281 214.417969 L 442 198.035156 C 445.675781 196.125 447.699219 192.074219 447.019531 187.992188 C 445.582031 179.328125 443.625 170.679688 441.191406 162.292969 C 440.039062 158.316406 436.457031 155.535156 432.3125 155.398438 L 396.820312 154.285156 C 394.101562 147.695312 390.996094 141.25 387.535156 135.007812 L 408.765625 106.558594 C 411.242188 103.234375 411.304688 98.707031 408.910156 95.320312 C 403.875 88.195312 398.332031 81.265625 392.4375 74.707031 C 390.585938 72.640625 387.984375 71.535156 385.324219 71.535156 C 384.027344 71.535156 382.707031 71.800781 381.457031 72.355469 L 348.976562 86.765625 C 343.671875 82.019531 338.105469 77.570312 332.324219 73.46875 L 339.164062 38.605469 C 339.960938 34.542969 338.046875 30.429688 334.441406 28.414062 C 326.75 24.125 318.765625 20.28125 310.714844 16.96875 C 309.53125 16.484375 308.304688 16.246094 307.082031 16.246094 C 304.335938 16.246094 301.652344 17.4375 299.800781 19.621094 L 276.789062 46.6875 C 269.96875 44.722656 263.007812 43.140625 255.976562 41.964844 L 246.980469 7.59375 C 245.925781 3.585938 242.417969 0.710938 238.285156 0.46875 C 233.757812 0.207031 229.3125 0.0742188 225.082031 0.0742188 Z M 225.082031 9.632812 C 229.320312 9.632812 233.542969 9.769531 237.726562 10.011719 L 248.324219 50.476562 C 259.230469 51.914062 269.816406 54.339844 279.996094 57.675781 L 307.082031 25.8125 C 314.890625 29.023438 322.46875 32.6875 329.785156 36.761719 L 321.726562 77.804688 C 330.804688 83.773438 339.285156 90.5625 347.089844 98.054688 L 385.332031 81.089844 C 390.957031 87.355469 396.234375 93.945312 401.105469 100.839844 L 376.105469 134.335938 C 381.667969 143.589844 386.410156 153.382812 390.222656 163.636719 L 432.011719 164.957031 C 434.339844 172.96875 436.207031 181.175781 437.59375 189.550781 L 400.476562 208.847656 C 400.96875 214.207031 401.253906 219.605469 401.253906 225.082031 C 401.253906 230.550781 400.96875 235.964844 400.476562 241.308594 L 437.59375 260.613281 C 436.207031 268.988281 434.339844 277.195312 432.019531 285.207031 L 390.222656 286.527344 C 386.410156 296.777344 381.671875 306.574219 376.105469 315.824219 L 401.105469 349.328125 C 396.238281 356.21875 390.964844 362.808594 385.332031 369.066406 L 347.089844 352.105469 C 339.285156 359.601562 330.8125 366.390625 321.734375 372.359375 L 329.785156 413.40625 C 322.46875 417.476562 314.890625 421.136719 307.082031 424.359375 L 279.996094 392.480469 C 269.816406 395.824219 259.230469 398.25 248.324219 399.6875 L 237.726562 440.152344 C 233.542969 440.394531 229.320312 440.53125 225.082031 440.53125 C 220.832031 440.53125 216.613281 440.394531 212.425781 440.152344 L 201.824219 399.6875 C 190.921875 398.25 180.34375 395.824219 170.15625 392.480469 L 143.070312 424.359375 C 135.261719 421.136719 127.691406 417.476562 120.371094 413.40625 L 128.425781 372.359375 C 119.351562 366.390625 110.863281 359.601562 103.066406 352.105469 L 64.820312 369.074219 C 59.195312 362.808594 53.917969 356.21875 49.046875 349.328125 L 74.046875 315.824219 C 68.484375 306.574219 63.742188 296.777344 59.929688 286.527344 L 18.144531 285.207031 C 15.820312 277.195312 13.953125 268.988281 12.558594 260.613281 L 49.667969 241.308594 C 49.183594 235.964844 48.894531 230.550781 48.894531 225.082031 C 48.894531 219.605469 49.183594 214.207031 49.667969 208.855469 L 12.558594 189.550781 C 13.953125 181.175781 15.820312 172.96875 18.144531 164.957031 L 59.929688 163.644531 C 63.742188 153.386719 68.484375 143.589844 74.046875 134.347656 L 49.046875 100.839844 C 53.917969 93.945312 59.195312 87.355469 64.820312 81.089844 L 103.066406 98.058594 C 110.863281 90.5625 119.351562 83.773438 128.425781 77.804688 L 120.371094 36.761719 C 127.683594 32.6875 135.261719 29.023438 143.070312 25.8125 L 170.15625 57.683594 C 180.34375 54.339844 190.921875 51.914062 201.824219 50.476562 L 212.425781 10.011719 C 216.613281 9.769531 220.832031 9.632812 225.082031 9.632812 " fill-opacity="1" fill-rule="nonzero"/></g><path fill="#2c2a30" d="M 379.59375 225.082031 C 379.59375 139.742188 310.414062 70.5625 225.074219 70.5625 C 139.738281 70.5625 70.554688 139.742188 70.554688 225.082031 C 70.554688 310.421875 139.738281 379.601562 225.074219 379.601562 C 310.414062 379.601562 379.59375 310.421875 379.59375 225.082031 " fill-opacity="1" fill-rule="nonzero"/><path fill="#c3bdc1" d="M 225.082031 352.019531 C 154.96875 352.019531 98.132812 295.1875 98.132812 225.082031 C 98.132812 154.976562 154.96875 98.140625 225.082031 98.140625 C 295.183594 98.140625 352.019531 154.976562 352.019531 225.082031 C 352.019531 295.1875 295.183594 352.019531 225.082031 352.019531 Z M 401.253906 225.082031 C 401.253906 219.605469 400.96875 214.207031 400.476562 208.847656 L 437.59375 189.550781 C 436.207031 181.175781 434.339844 172.96875 432.011719 164.957031 L 390.222656 163.636719 C 386.410156 153.382812 381.667969 143.589844 376.105469 134.335938 L 401.105469 100.839844 C 396.234375 93.945312 390.957031 87.355469 385.332031 81.089844 L 347.089844 98.054688 C 339.285156 90.5625 330.804688 83.773438 321.726562 77.804688 L 329.785156 36.761719 C 322.46875 32.6875 314.890625 29.023438 307.082031 25.8125 L 279.996094 57.675781 C 269.816406 54.339844 259.230469 51.914062 248.324219 50.476562 L 237.726562 10.011719 C 233.542969 9.769531 229.320312 9.632812 225.082031 9.632812 C 220.832031 9.632812 216.613281 9.769531 212.425781 10.011719 L 201.824219 50.476562 C 190.921875 51.914062 180.34375 54.339844 170.15625 57.683594 L 143.070312 25.8125 C 135.261719 29.023438 127.683594 32.6875 120.371094 36.761719 L 128.425781 77.804688 C 119.351562 83.773438 110.863281 90.5625 103.066406 98.058594 L 64.820312 81.089844 C 59.195312 87.355469 53.917969 93.945312 49.046875 100.839844 L 74.046875 134.347656 C 68.484375 143.589844 63.742188 153.386719 59.929688 163.644531 L 18.144531 164.957031 C 15.820312 172.96875 13.953125 181.175781 12.558594 189.550781 L 49.667969 208.855469 C 49.183594 214.207031 48.894531 219.605469 48.894531 225.082031 C 48.894531 230.550781 49.183594 235.964844 49.667969 241.308594 L 12.558594 260.613281 C 13.953125 268.988281 15.820312 277.195312 18.144531 285.207031 L 59.929688 286.527344 C 63.742188 296.777344 68.484375 306.574219 74.046875 315.824219 L 49.046875 349.328125 C 53.917969 356.21875 59.195312 362.808594 64.820312 369.074219 L 103.066406 352.105469 C 110.863281 359.601562 119.351562 366.390625 128.425781 372.359375 L 120.371094 413.40625 C 127.691406 417.476562 135.261719 421.136719 143.070312 424.359375 L 170.15625 392.480469 C 180.34375 395.824219 190.921875 398.25 201.824219 399.6875 L 212.425781 440.152344 C 216.613281 440.394531 220.832031 440.53125 225.082031 440.53125 C 229.320312 440.53125 233.542969 440.394531 237.726562 440.152344 L 248.324219 399.6875 C 259.230469 398.25 269.816406 395.824219 279.996094 392.480469 L 307.082031 424.359375 C 314.890625 421.136719 322.46875 417.476562 329.785156 413.40625 L 321.734375 372.359375 C 330.8125 366.390625 339.285156 359.601562 347.089844 352.105469 L 385.332031 369.066406 C 390.964844 362.808594 396.238281 356.21875 401.105469 349.328125 L 376.105469 315.824219 C 381.671875 306.574219 386.410156 296.777344 390.222656 286.527344 L 432.019531 285.207031 C 434.339844 277.195312 436.207031 268.988281 437.59375 260.613281 L 400.476562 241.308594 C 400.96875 235.964844 401.253906 230.550781 401.253906 225.082031 " fill-opacity="1" fill-rule="nonzero"/><path fill="#5be3a6" d="M 225.082031 83.28125 C 146.890625 83.28125 83.28125 146.898438 83.28125 225.082031 C 83.28125 303.265625 146.890625 366.875 225.082031 366.875 C 303.265625 366.875 366.875 303.265625 366.875 225.082031 C 366.875 146.898438 303.265625 83.28125 225.082031 83.28125 Z M 225.082031 98.140625 C 295.183594 98.140625 352.019531 154.976562 352.019531 225.082031 C 352.019531 295.1875 295.183594 352.019531 225.082031 352.019531 C 154.96875 352.019531 98.132812 295.1875 98.132812 225.082031 C 98.132812 154.976562 154.96875 98.140625 225.082031 98.140625 " fill-opacity="1" fill-rule="nonzero"/></svg>