<svg xmlns="http://www.w3.org/2000/svg" xmlns:xlink="http://www.w3.org/1999/xlink" width="600" zoomAndPan="magnify" viewBox="0 0 450 449.999984" height="600" preserveAspectRatio="xMidYMid meet" version="1.0"><defs><clipPath id="4a465d8382"><path d="M 159 70 L 293 70 L 293 382.5 L 159 382.5 Z M 159 70 " clip-rule="nonzero"/></clipPath></defs><path fill="#ffffff" d="M 114.085938 338.132812 C 107.429688 338.132812 102.992188 335.914062 98.554688 331.480469 L 9.824219 242.746094 C 0.949219 233.875 0.949219 220.5625 9.824219 211.691406 L 98.554688 122.957031 C 107.429688 114.085938 120.738281 114.085938 129.613281 122.957031 C 138.484375 131.832031 138.484375 145.140625 129.613281 154.015625 L 56.410156 227.21875 L 129.613281 300.421875 C 138.484375 309.296875 138.484375 322.605469 129.613281 331.480469 C 125.175781 335.914062 120.738281 338.132812 114.085938 338.132812 Z M 114.085938 338.132812 " fill-opacity="1" fill-rule="nonzero"/><path fill="#ffffff" d="M 335.914062 338.132812 C 329.261719 338.132812 324.824219 335.914062 320.386719 331.480469 C 311.515625 322.605469 311.515625 309.296875 320.386719 300.421875 L 393.589844 227.21875 L 320.386719 154.015625 C 311.515625 145.140625 311.515625 131.832031 320.386719 122.957031 C 329.261719 114.085938 342.570312 114.085938 351.445312 122.957031 L 440.175781 211.691406 C 449.050781 220.5625 449.050781 233.875 440.175781 242.746094 L 351.445312 331.480469 C 347.007812 335.914062 342.570312 338.132812 335.914062 338.132812 Z M 335.914062 338.132812 " fill-opacity="1" fill-rule="nonzero"/><g clip-path="url(#4a465d8382)"><path fill="#ffffff" d="M 180.632812 382.5 C 178.414062 382.5 176.195312 382.5 173.980469 380.28125 C 162.886719 375.84375 156.230469 364.753906 160.667969 351.445312 L 249.402344 85.246094 C 253.839844 74.15625 264.929688 67.5 278.238281 71.9375 C 289.332031 76.375 295.984375 87.464844 291.550781 100.773438 L 202.816406 366.972656 C 198.378906 375.84375 189.507812 382.5 180.632812 382.5 Z M 180.632812 382.5 " fill-opacity="1" fill-rule="nonzero"/></g><path fill="#656d78" d="M 592.285156 -36.78125 L 592.285156 468.332031 L 575.960938 484.640625 L -43.3125 484.640625 L -43.3125 -36.78125 Z M 592.285156 -36.78125 " fill-opacity="1" fill-rule="nonzero"/><path fill="#5d9cec" d="M 364.203125 44.746094 L 21.808594 44.746094 C 12.796875 44.746094 5.507812 37.453125 5.507812 28.445312 C 5.507812 19.4375 12.796875 12.148438 21.808594 12.148438 L 364.203125 12.148438 C 373.222656 12.148438 380.503906 19.4375 380.503906 28.445312 C 380.503906 37.453125 373.222656 44.746094 364.203125 44.746094 Z M 364.203125 44.746094 " fill-opacity="1" fill-rule="nonzero"/><path fill="#a0d468" d="M 298.996094 109.941406 L 54.410156 109.941406 C 45.402344 109.941406 38.109375 102.652344 38.109375 93.640625 C 38.109375 84.632812 45.402344 77.34375 54.410156 77.34375 L 298.996094 77.34375 C 308.015625 77.34375 315.296875 84.632812 315.296875 93.640625 C 315.296875 102.652344 308.015625 109.941406 298.996094 109.941406 Z M 298.996094 109.941406 " fill-opacity="1" fill-rule="nonzero"/><path fill="#a0d468" d="M 282.695312 370.75 L 54.410156 370.75 C 45.402344 370.75 38.109375 363.457031 38.109375 354.449219 C 38.109375 345.449219 45.402344 338.148438 54.410156 338.148438 L 282.695312 338.148438 C 291.714844 338.148438 298.996094 345.449219 298.996094 354.449219 C 298.996094 363.457031 291.714844 370.75 282.695312 370.75 Z M 282.695312 370.75 " fill-opacity="1" fill-rule="nonzero"/><path fill="#a0d468" d="M 396.804688 109.941406 L 364.203125 109.941406 C 355.191406 109.941406 347.902344 102.652344 347.902344 93.640625 C 347.902344 84.632812 355.191406 77.34375 364.203125 77.34375 L 396.804688 77.34375 C 405.824219 77.34375 413.105469 84.632812 413.105469 93.640625 C 413.105469 102.652344 405.824219 109.941406 396.804688 109.941406 Z M 396.804688 109.941406 " fill-opacity="1" fill-rule="nonzero"/><path fill="#5d9cec" d="M 119.617188 435.710938 L 21.808594 435.710938 C 12.796875 435.710938 5.507812 428.433594 5.507812 419.410156 C 5.507812 410.402344 12.796875 403.113281 21.808594 403.113281 L 119.617188 403.113281 C 128.636719 403.113281 135.917969 410.402344 135.917969 419.410156 C 135.917969 428.433594 128.636719 435.710938 119.617188 435.710938 Z M 119.617188 435.710938 " fill-opacity="1" fill-rule="nonzero"/><path fill="#ffce54" d="M 429.40625 240.269531 L 87.015625 240.269531 C 78.003906 240.269531 70.714844 232.980469 70.714844 223.972656 C 70.714844 214.960938 78.003906 207.671875 87.015625 207.671875 L 429.40625 207.671875 C 438.429688 207.671875 445.707031 214.960938 445.707031 223.972656 C 445.707031 232.980469 438.429688 240.269531 429.40625 240.269531 Z M 429.40625 240.269531 " fill-opacity="1" fill-rule="nonzero"/><path fill="#ed5565" d="M 184.640625 175.042969 L 87.015625 175.042969 C 78.003906 175.042969 70.714844 167.753906 70.714844 158.742188 C 70.714844 149.722656 78.003906 142.445312 87.015625 142.445312 L 184.640625 142.445312 C 193.664062 142.445312 200.945312 149.722656 200.945312 158.742188 C 200.945312 167.753906 193.664062 175.042969 184.640625 175.042969 Z M 184.640625 175.042969 " fill-opacity="1" fill-rule="nonzero"/><path fill="#ed5565" d="M 331.597656 305.433594 L 87.015625 305.433594 C 78.003906 305.433594 70.714844 298.144531 70.714844 289.136719 C 70.714844 280.117188 78.003906 272.835938 87.015625 272.835938 L 331.597656 272.835938 C 340.621094 272.835938 347.902344 280.117188 347.902344 289.136719 C 347.902344 298.144531 340.621094 305.433594 331.597656 305.433594 Z M 331.597656 305.433594 " fill-opacity="1" fill-rule="nonzero"/></svg>