<svg xmlns="http://www.w3.org/2000/svg" xmlns:xlink="http://www.w3.org/1999/xlink" width="600" zoomAndPan="magnify" viewBox="0 0 450 449.999984" height="600" preserveAspectRatio="xMidYMid meet" version="1.0"><path fill="#ffffff" d="M 366.777344 0.132812 L 83.609375 0.132812 C 37.582031 0.132812 0.132812 37.582031 0.132812 83.609375 L 0.132812 366.777344 C 0.132812 412.808594 37.582031 450.257812 83.609375 450.257812 L 366.777344 450.257812 C 412.808594 450.257812 450.257812 412.808594 450.257812 366.777344 L 450.257812 83.609375 C 450.257812 37.582031 412.808594 0.132812 366.777344 0.132812 Z M 225.195312 104.445312 C 291.773438 104.445312 345.945312 158.609375 345.945312 225.195312 C 345.945312 291.777344 291.773438 345.945312 225.195312 345.945312 C 158.613281 345.945312 104.445312 291.773438 104.445312 225.195312 C 104.445312 158.613281 158.613281 104.445312 225.195312 104.445312 Z M 104.445312 171 L 104.445312 11.78125 L 140.945312 11.78125 L 140.945312 122.171875 C 140.945312 122.476562 140.988281 122.769531 141.035156 123.0625 C 125.433594 135.941406 112.851562 152.335938 104.445312 171 Z M 438.609375 366.777344 C 438.609375 406.386719 406.386719 438.609375 366.777344 438.609375 L 83.609375 438.609375 C 44.003906 438.609375 11.78125 406.386719 11.78125 366.777344 L 11.78125 83.609375 C 11.78125 57.605469 25.714844 34.855469 46.46875 22.246094 L 46.46875 220.671875 C 46.46875 223.890625 49.074219 226.496094 52.292969 226.496094 C 55.511719 226.496094 58.117188 223.890625 58.117188 220.671875 L 58.117188 19.339844 C 58.117188 18.410156 57.878906 17.550781 57.496094 16.769531 C 65.601562 13.589844 74.390625 11.78125 83.613281 11.78125 L 92.796875 11.78125 L 92.796875 214.363281 C 92.796875 215.023438 92.929688 215.648438 93.132812 216.238281 C 92.933594 219.203125 92.796875 222.179688 92.796875 225.195312 C 92.796875 298.199219 152.1875 357.59375 225.195312 357.59375 C 298.199219 357.59375 357.59375 298.199219 357.59375 225.195312 C 357.59375 152.1875 298.199219 92.796875 225.195312 92.796875 C 198.398438 92.796875 173.457031 100.816406 152.59375 114.554688 L 152.59375 11.78125 L 366.777344 11.78125 C 406.386719 11.78125 438.609375 44.003906 438.609375 83.609375 Z M 438.609375 366.777344 " fill-opacity="1" fill-rule="nonzero"/><path fill="#ffffff" d="M 356.5 52.078125 L 347.03125 52.078125 C 330.972656 52.078125 317.910156 65.140625 317.910156 81.199219 L 317.910156 90.664062 C 317.910156 106.722656 330.972656 119.785156 347.03125 119.785156 L 356.496094 119.785156 C 372.554688 119.785156 385.617188 106.722656 385.617188 90.664062 L 385.617188 81.199219 C 385.621094 65.140625 372.558594 52.078125 356.5 52.078125 Z M 373.972656 90.667969 C 373.972656 100.300781 366.132812 108.140625 356.5 108.140625 L 347.03125 108.140625 C 337.398438 108.140625 329.558594 100.300781 329.558594 90.667969 L 329.558594 81.203125 C 329.558594 71.570312 337.398438 63.730469 347.03125 63.730469 L 356.496094 63.730469 C 366.128906 63.730469 373.96875 71.570312 373.96875 81.203125 L 373.96875 90.667969 Z M 373.972656 90.667969 " fill-opacity="1" fill-rule="nonzero"/><path fill="#ffffff" d="M 225.195312 323.324219 C 279.304688 323.324219 323.324219 279.304688 323.324219 225.195312 C 323.324219 171.085938 279.304688 127.0625 225.195312 127.0625 C 171.085938 127.0625 127.0625 171.085938 127.0625 225.195312 C 127.0625 279.304688 171.085938 323.324219 225.195312 323.324219 Z M 225.195312 138.710938 C 272.882812 138.710938 311.675781 177.507812 311.675781 225.195312 C 311.675781 272.882812 272.882812 311.675781 225.195312 311.675781 C 177.507812 311.675781 138.710938 272.882812 138.710938 225.195312 C 138.710938 177.507812 177.507812 138.710938 225.195312 138.710938 Z M 225.195312 138.710938 " fill-opacity="1" fill-rule="nonzero"/></svg>