<svg xmlns="http://www.w3.org/2000/svg" xmlns:xlink="http://www.w3.org/1999/xlink" width="600" zoomAndPan="magnify" viewBox="0 0 450 449.999984" height="600" preserveAspectRatio="xMidYMid meet" version="1.0"><path fill="#ffffff" d="M 409.609375 450 L 40.390625 450 C 39.070312 450 37.75 449.933594 36.433594 449.800781 C 35.117188 449.671875 33.8125 449.476562 32.515625 449.214844 C 31.21875 448.957031 29.9375 448.636719 28.671875 448.25 C 27.40625 447.867188 26.164062 447.421875 24.941406 446.914062 C 23.71875 446.40625 22.527344 445.839844 21.359375 445.21875 C 20.195312 444.59375 19.0625 443.914062 17.960938 443.179688 C 16.863281 442.445312 15.800781 441.65625 14.777344 440.816406 C 13.757812 439.980469 12.777344 439.09375 11.84375 438.15625 C 10.90625 437.222656 10.019531 436.242188 9.183594 435.222656 C 8.34375 434.199219 7.554688 433.136719 6.820312 432.039062 C 6.085938 430.9375 5.40625 429.804688 4.78125 428.640625 C 4.160156 427.472656 3.59375 426.28125 3.085938 425.058594 C 2.578125 423.835938 2.132812 422.59375 1.75 421.328125 C 1.363281 420.0625 1.042969 418.78125 0.785156 417.484375 C 0.523438 416.1875 0.328125 414.882812 0.199219 413.566406 C 0.0664062 412.25 0 410.929688 0 409.609375 L 0 40.390625 C 0 39.070312 0.0664062 37.75 0.199219 36.433594 C 0.328125 35.117188 0.523438 33.8125 0.785156 32.515625 C 1.042969 31.21875 1.363281 29.9375 1.75 28.671875 C 2.132812 27.40625 2.578125 26.164062 3.085938 24.941406 C 3.59375 23.71875 4.160156 22.527344 4.78125 21.359375 C 5.40625 20.195312 6.085938 19.0625 6.820312 17.960938 C 7.554688 16.863281 8.34375 15.800781 9.183594 14.777344 C 10.019531 13.757812 10.90625 12.777344 11.84375 11.84375 C 12.777344 10.90625 13.757812 10.019531 14.777344 9.183594 C 15.800781 8.34375 16.863281 7.554688 17.960938 6.820312 C 19.0625 6.085938 20.195312 5.40625 21.359375 4.78125 C 22.527344 4.160156 23.71875 3.59375 24.941406 3.085938 C 26.164062 2.578125 27.40625 2.132812 28.671875 1.75 C 29.9375 1.363281 31.21875 1.042969 32.515625 0.785156 C 33.8125 0.523438 35.117188 0.328125 36.433594 0.199219 C 37.75 0.0664062 39.070312 0 40.390625 0 L 409.609375 0 C 410.929688 0 412.25 0.0664062 413.566406 0.199219 C 414.882812 0.328125 416.1875 0.523438 417.484375 0.785156 C 418.78125 1.042969 420.0625 1.363281 421.328125 1.75 C 422.59375 2.132812 423.835938 2.578125 425.058594 3.085938 C 426.28125 3.59375 427.472656 4.160156 428.640625 4.78125 C 429.804688 5.40625 430.9375 6.085938 432.039062 6.820312 C 433.136719 7.554688 434.199219 8.34375 435.222656 9.183594 C 436.242188 10.019531 437.222656 10.90625 438.15625 11.84375 C 439.09375 12.777344 439.980469 13.757812 440.820312 14.777344 C 441.65625 15.800781 442.445312 16.863281 443.179688 17.960938 C 443.914062 19.0625 444.59375 20.195312 445.21875 21.359375 C 445.84375 22.527344 446.40625 23.71875 446.914062 24.941406 C 447.421875 26.164062 447.867188 27.40625 448.25 28.671875 C 448.636719 29.9375 448.957031 31.21875 449.214844 32.515625 C 449.476562 33.8125 449.671875 35.117188 449.800781 36.433594 C 449.933594 37.75 450 39.070312 450 40.390625 L 450 409.609375 C 450 410.929688 449.933594 412.25 449.800781 413.566406 C 449.671875 414.882812 449.476562 416.1875 449.214844 417.484375 C 448.957031 418.78125 448.636719 420.0625 448.25 421.328125 C 447.867188 422.59375 447.421875 423.835938 446.914062 425.058594 C 446.40625 426.28125 445.839844 427.472656 445.21875 428.640625 C 444.59375 429.804688 443.914062 430.9375 443.179688 432.039062 C 442.445312 433.136719 441.65625 434.199219 440.816406 435.222656 C 439.980469 436.242188 439.09375 437.222656 438.15625 438.15625 C 437.222656 439.09375 436.242188 439.980469 435.222656 440.816406 C 434.199219 441.65625 433.136719 442.445312 432.039062 443.179688 C 430.9375 443.914062 429.804688 444.59375 428.640625 445.21875 C 427.472656 445.839844 426.28125 446.40625 425.058594 446.914062 C 423.835938 447.421875 422.59375 447.867188 421.328125 448.25 C 420.0625 448.636719 418.78125 448.957031 417.484375 449.214844 C 416.1875 449.476562 414.882812 449.671875 413.566406 449.800781 C 412.25 449.933594 410.929688 450 409.609375 450 Z M 40.390625 15.21875 C 39.566406 15.21875 38.746094 15.257812 37.925781 15.339844 C 37.105469 15.421875 36.289062 15.542969 35.480469 15.707031 C 34.671875 15.867188 33.875 16.066406 33.085938 16.308594 C 32.296875 16.546875 31.523438 16.824219 30.761719 17.140625 C 30 17.457031 29.257812 17.808594 28.53125 18.199219 C 27.804688 18.585938 27.097656 19.011719 26.410156 19.46875 C 25.726562 19.925781 25.066406 20.417969 24.429688 20.941406 C 23.792969 21.460938 23.179688 22.015625 22.597656 22.597656 C 22.015625 23.179688 21.460938 23.792969 20.941406 24.429688 C 20.417969 25.066406 19.925781 25.726562 19.46875 26.410156 C 19.011719 27.097656 18.585938 27.804688 18.199219 28.53125 C 17.808594 29.257812 17.457031 30 17.140625 30.761719 C 16.824219 31.523438 16.546875 32.296875 16.308594 33.085938 C 16.066406 33.875 15.867188 34.671875 15.707031 35.480469 C 15.542969 36.289062 15.421875 37.105469 15.339844 37.925781 C 15.257812 38.746094 15.21875 39.566406 15.21875 40.390625 L 15.21875 409.609375 C 15.21875 410.433594 15.257812 411.253906 15.339844 412.074219 C 15.421875 412.894531 15.542969 413.710938 15.707031 414.519531 C 15.867188 415.328125 16.066406 416.125 16.308594 416.914062 C 16.546875 417.703125 16.824219 418.476562 17.140625 419.238281 C 17.457031 420 17.808594 420.742188 18.199219 421.46875 C 18.585938 422.195312 19.011719 422.902344 19.46875 423.589844 C 19.925781 424.273438 20.417969 424.933594 20.941406 425.570312 C 21.464844 426.207031 22.015625 426.820312 22.597656 427.402344 C 23.179688 427.984375 23.792969 428.535156 24.429688 429.058594 C 25.066406 429.582031 25.726562 430.074219 26.410156 430.53125 C 27.097656 430.988281 27.804688 431.414062 28.53125 431.800781 C 29.257812 432.191406 30 432.542969 30.761719 432.859375 C 31.523438 433.175781 32.296875 433.453125 33.085938 433.691406 C 33.875 433.933594 34.671875 434.132812 35.480469 434.292969 C 36.289062 434.457031 37.105469 434.578125 37.925781 434.660156 C 38.746094 434.742188 39.566406 434.78125 40.390625 434.78125 L 409.609375 434.78125 C 410.433594 434.78125 411.253906 434.742188 412.074219 434.660156 C 412.894531 434.578125 413.710938 434.457031 414.519531 434.292969 C 415.328125 434.132812 416.125 433.933594 416.914062 433.691406 C 417.703125 433.453125 418.476562 433.175781 419.238281 432.859375 C 420 432.542969 420.742188 432.191406 421.46875 431.800781 C 422.195312 431.414062 422.902344 430.988281 423.589844 430.53125 C 424.273438 430.074219 424.933594 429.582031 425.570312 429.058594 C 426.207031 428.535156 426.820312 427.984375 427.402344 427.402344 C 427.984375 426.820312 428.535156 426.207031 429.058594 425.570312 C 429.582031 424.933594 430.074219 424.273438 430.53125 423.589844 C 430.988281 422.902344 431.414062 422.195312 431.800781 421.46875 C 432.191406 420.742188 432.542969 420 432.859375 419.238281 C 433.175781 418.476562 433.453125 417.703125 433.691406 416.914062 C 433.933594 416.125 434.132812 415.328125 434.292969 414.519531 C 434.457031 413.710938 434.578125 412.894531 434.660156 412.074219 C 434.742188 411.253906 434.78125 410.433594 434.78125 409.609375 L 434.78125 40.390625 C 434.78125 39.566406 434.742188 38.746094 434.660156 37.925781 C 434.578125 37.105469 434.457031 36.289062 434.292969 35.480469 C 434.132812 34.671875 433.933594 33.875 433.691406 33.085938 C 433.453125 32.296875 433.175781 31.523438 432.859375 30.761719 C 432.542969 30 432.191406 29.257812 431.800781 28.53125 C 431.414062 27.804688 430.988281 27.097656 430.53125 26.410156 C 430.074219 25.726562 429.582031 25.066406 429.058594 24.429688 C 428.535156 23.792969 427.984375 23.179688 427.402344 22.597656 C 426.820312 22.015625 426.207031 21.464844 425.570312 20.941406 C 424.933594 20.417969 424.273438 19.925781 423.589844 19.46875 C 422.902344 19.011719 422.195312 18.585938 421.46875 18.199219 C 420.742188 17.808594 420 17.457031 419.238281 17.140625 C 418.476562 16.824219 417.703125 16.546875 416.914062 16.308594 C 416.125 16.066406 415.328125 15.867188 414.519531 15.707031 C 413.710938 15.542969 412.894531 15.421875 412.074219 15.339844 C 411.253906 15.257812 410.433594 15.21875 409.609375 15.21875 Z M 40.390625 15.21875 " fill-opacity="1" fill-rule="nonzero"/><path fill="#ffffff" d="M 392.765625 415.90625 L 57.234375 415.90625 C 56.476562 415.90625 55.71875 415.867188 54.964844 415.792969 C 54.210938 415.71875 53.464844 415.605469 52.722656 415.457031 C 51.976562 415.308594 51.242188 415.125 50.519531 414.90625 C 49.792969 414.683594 49.082031 414.429688 48.382812 414.140625 C 47.683594 413.847656 47 413.523438 46.332031 413.167969 C 45.664062 412.808594 45.011719 412.421875 44.382812 412 C 43.753906 411.578125 43.144531 411.128906 42.558594 410.644531 C 41.976562 410.164062 41.414062 409.65625 40.878906 409.121094 C 40.34375 408.585938 39.835938 408.023438 39.355469 407.441406 C 38.871094 406.855469 38.421875 406.246094 38 405.617188 C 37.578125 404.988281 37.191406 404.335938 36.832031 403.667969 C 36.476562 403 36.152344 402.316406 35.859375 401.617188 C 35.570312 400.917969 35.316406 400.207031 35.09375 399.480469 C 34.875 398.757812 34.691406 398.023438 34.542969 397.277344 C 34.394531 396.535156 34.28125 395.789062 34.207031 395.035156 C 34.132812 394.28125 34.09375 393.523438 34.09375 392.765625 L 34.09375 57.234375 C 34.09375 56.476562 34.132812 55.71875 34.207031 54.964844 C 34.28125 54.210938 34.394531 53.464844 34.542969 52.722656 C 34.691406 51.976562 34.875 51.242188 35.09375 50.519531 C 35.316406 49.792969 35.570312 49.082031 35.859375 48.382812 C 36.152344 47.683594 36.476562 47 36.832031 46.332031 C 37.191406 45.664062 37.578125 45.011719 38 44.382812 C 38.421875 43.753906 38.871094 43.144531 39.355469 42.558594 C 39.835938 41.976562 40.34375 41.414062 40.878906 40.878906 C 41.414062 40.34375 41.976562 39.835938 42.558594 39.355469 C 43.144531 38.871094 43.753906 38.421875 44.382812 38 C 45.011719 37.578125 45.664062 37.191406 46.332031 36.832031 C 47 36.476562 47.683594 36.152344 48.382812 35.859375 C 49.082031 35.570312 49.792969 35.316406 50.519531 35.09375 C 51.242188 34.875 51.976562 34.691406 52.722656 34.542969 C 53.464844 34.394531 54.210938 34.28125 54.964844 34.207031 C 55.71875 34.132812 56.476562 34.09375 57.234375 34.09375 L 392.765625 34.09375 C 393.523438 34.09375 394.28125 34.132812 395.035156 34.207031 C 395.789062 34.28125 396.535156 34.394531 397.277344 34.542969 C 398.023438 34.691406 398.757812 34.875 399.480469 35.09375 C 400.207031 35.316406 400.917969 35.570312 401.617188 35.859375 C 402.316406 36.152344 403 36.476562 403.667969 36.832031 C 404.335938 37.191406 404.988281 37.578125 405.617188 38 C 406.246094 38.421875 406.855469 38.871094 407.441406 39.355469 C 408.023438 39.835938 408.585938 40.34375 409.121094 40.878906 C 409.65625 41.414062 410.164062 41.976562 410.648438 42.558594 C 411.128906 43.144531 411.578125 43.753906 412 44.382812 C 412.421875 45.011719 412.808594 45.664062 413.167969 46.332031 C 413.523438 47 413.847656 47.683594 414.140625 48.382812 C 414.429688 49.082031 414.683594 49.792969 414.90625 50.519531 C 415.125 51.242188 415.308594 51.976562 415.457031 52.722656 C 415.605469 53.464844 415.71875 54.210938 415.792969 54.964844 C 415.867188 55.71875 415.90625 56.476562 415.90625 57.234375 L 415.90625 392.765625 C 415.90625 393.523438 415.867188 394.28125 415.792969 395.035156 C 415.71875 395.789062 415.605469 396.535156 415.457031 397.277344 C 415.308594 398.023438 415.125 398.757812 414.90625 399.480469 C 414.683594 400.207031 414.429688 400.917969 414.140625 401.617188 C 413.847656 402.316406 413.523438 403 413.167969 403.667969 C 412.808594 404.335938 412.421875 404.988281 412 405.617188 C 411.578125 406.246094 411.128906 406.855469 410.644531 407.441406 C 410.164062 408.023438 409.65625 408.585938 409.121094 409.121094 C 408.585938 409.65625 408.023438 410.164062 407.441406 410.644531 C 406.855469 411.128906 406.246094 411.578125 405.617188 412 C 404.988281 412.421875 404.335938 412.808594 403.667969 413.167969 C 403 413.523438 402.316406 413.847656 401.617188 414.140625 C 400.917969 414.429688 400.207031 414.683594 399.480469 414.90625 C 398.757812 415.125 398.023438 415.308594 397.277344 415.457031 C 396.535156 415.605469 395.789062 415.71875 395.035156 415.792969 C 394.28125 415.867188 393.523438 415.90625 392.765625 415.90625 Z M 57.234375 49.308594 C 56.714844 49.308594 56.199219 49.363281 55.6875 49.464844 C 55.179688 49.566406 54.683594 49.714844 54.203125 49.914062 C 53.722656 50.113281 53.265625 50.359375 52.832031 50.648438 C 52.402344 50.9375 52 51.265625 51.632812 51.632812 C 51.265625 52 50.9375 52.402344 50.648438 52.832031 C 50.359375 53.265625 50.113281 53.722656 49.914062 54.203125 C 49.714844 54.683594 49.566406 55.179688 49.464844 55.6875 C 49.363281 56.199219 49.308594 56.714844 49.308594 57.234375 L 49.308594 392.765625 C 49.308594 393.285156 49.363281 393.800781 49.464844 394.3125 C 49.566406 394.820312 49.714844 395.316406 49.914062 395.796875 C 50.113281 396.277344 50.359375 396.734375 50.648438 397.167969 C 50.9375 397.597656 51.265625 398 51.632812 398.367188 C 52 398.734375 52.402344 399.0625 52.835938 399.351562 C 53.265625 399.640625 53.722656 399.882812 54.203125 400.085938 C 54.683594 400.285156 55.179688 400.433594 55.6875 400.535156 C 56.199219 400.636719 56.714844 400.691406 57.234375 400.691406 L 392.765625 400.691406 C 393.285156 400.691406 393.800781 400.636719 394.3125 400.535156 C 394.820312 400.433594 395.316406 400.285156 395.796875 400.085938 C 396.277344 399.882812 396.734375 399.640625 397.164062 399.351562 C 397.597656 399.0625 398 398.734375 398.367188 398.367188 C 398.734375 398 399.0625 397.597656 399.351562 397.164062 C 399.640625 396.734375 399.882812 396.277344 400.085938 395.796875 C 400.285156 395.316406 400.433594 394.820312 400.535156 394.3125 C 400.636719 393.800781 400.691406 393.285156 400.691406 392.765625 L 400.691406 57.234375 C 400.691406 56.714844 400.636719 56.199219 400.535156 55.6875 C 400.433594 55.179688 400.285156 54.683594 400.085938 54.203125 C 399.882812 53.722656 399.640625 53.265625 399.351562 52.832031 C 399.0625 52.402344 398.734375 52 398.367188 51.632812 C 398 51.265625 397.597656 50.9375 397.164062 50.648438 C 396.734375 50.359375 396.277344 50.113281 395.796875 49.914062 C 395.316406 49.714844 394.820312 49.566406 394.3125 49.464844 C 393.800781 49.363281 393.285156 49.308594 392.765625 49.308594 Z M 57.234375 49.308594 " fill-opacity="1" fill-rule="nonzero"/><path fill="#ffffff" d="M 121.859375 384.289062 L 82.308594 384.289062 C 81.808594 384.289062 81.316406 384.238281 80.824219 384.140625 C 80.335938 384.042969 79.859375 383.898438 79.398438 383.707031 C 78.9375 383.519531 78.496094 383.285156 78.082031 383.003906 C 77.667969 382.726562 77.28125 382.414062 76.929688 382.058594 C 76.578125 381.707031 76.261719 381.320312 75.984375 380.90625 C 75.707031 380.492188 75.472656 380.050781 75.28125 379.589844 C 75.089844 379.128906 74.945312 378.652344 74.847656 378.164062 C 74.75 377.671875 74.699219 377.179688 74.699219 376.679688 L 74.699219 159.164062 C 74.699219 158.664062 74.75 158.167969 74.847656 157.679688 C 74.945312 157.1875 75.089844 156.710938 75.28125 156.25 C 75.472656 155.789062 75.707031 155.351562 75.984375 154.9375 C 76.261719 154.519531 76.578125 154.136719 76.929688 153.78125 C 77.28125 153.429688 77.667969 153.113281 78.082031 152.835938 C 78.496094 152.558594 78.9375 152.324219 79.398438 152.132812 C 79.859375 151.941406 80.335938 151.796875 80.824219 151.699219 C 81.316406 151.601562 81.808594 151.554688 82.308594 151.554688 L 121.859375 151.554688 C 122.359375 151.554688 122.851562 151.601562 123.34375 151.699219 C 123.832031 151.796875 124.308594 151.941406 124.769531 152.132812 C 125.230469 152.324219 125.671875 152.558594 126.085938 152.835938 C 126.5 153.113281 126.886719 153.429688 127.238281 153.78125 C 127.59375 154.136719 127.90625 154.519531 128.183594 154.9375 C 128.460938 155.351562 128.695312 155.789062 128.886719 156.25 C 129.078125 156.710938 129.222656 157.1875 129.320312 157.679688 C 129.417969 158.167969 129.46875 158.664062 129.46875 159.164062 L 129.46875 376.679688 C 129.46875 377.179688 129.417969 377.671875 129.320312 378.164062 C 129.222656 378.652344 129.078125 379.128906 128.886719 379.589844 C 128.695312 380.050781 128.460938 380.492188 128.183594 380.90625 C 127.90625 381.320312 127.59375 381.707031 127.238281 382.058594 C 126.886719 382.414062 126.5 382.726562 126.085938 383.003906 C 125.671875 383.285156 125.230469 383.519531 124.769531 383.707031 C 124.308594 383.898438 123.832031 384.042969 123.34375 384.140625 C 122.851562 384.238281 122.359375 384.289062 121.859375 384.289062 Z M 89.917969 369.070312 L 114.25 369.070312 L 114.25 166.773438 L 89.917969 166.773438 Z M 101.183594 129.941406 C 99.078125 129.964844 96.992188 129.777344 94.925781 129.375 C 92.859375 128.976562 90.851562 128.371094 88.910156 127.5625 C 86.964844 126.75 85.121094 125.753906 83.382812 124.570312 C 81.640625 123.386719 80.035156 122.039062 78.570312 120.527344 C 77.148438 119.027344 75.882812 117.402344 74.773438 115.660156 C 73.664062 113.914062 72.734375 112.078125 71.976562 110.15625 C 71.222656 108.230469 70.660156 106.25 70.285156 104.214844 C 69.914062 102.183594 69.738281 100.132812 69.761719 98.066406 C 69.761719 79.628906 83.65625 65.734375 102.085938 65.734375 C 120.515625 65.734375 133.902344 79.273438 133.960938 97.941406 C 134.21875 106.484375 131.246094 114.417969 125.566406 120.28125 C 119.566406 126.488281 110.871094 129.917969 101.183594 129.917969 Z M 102.085938 80.949219 C 92.175781 80.949219 84.976562 88.148438 84.976562 98.066406 C 84.976562 107.71875 91.792969 114.722656 101.183594 114.722656 C 106.800781 114.722656 111.445312 112.988281 114.625 109.699219 C 117.472656 106.753906 118.902344 102.820312 118.75 98.316406 C 118.75 98.234375 118.75 98.148438 118.75 98.066406 C 118.746094 87.648438 112.207031 80.929688 102.085938 80.929688 Z M 133.960938 98.066406 Z M 133.960938 98.066406 " fill-opacity="1" fill-rule="nonzero"/><path fill="#ffffff" d="M 372.628906 384.289062 L 333.082031 384.289062 C 332.582031 384.289062 332.085938 384.238281 331.597656 384.140625 C 331.105469 384.042969 330.632812 383.898438 330.167969 383.707031 C 329.707031 383.519531 329.269531 383.285156 328.855469 383.003906 C 328.4375 382.726562 328.054688 382.414062 327.703125 382.058594 C 327.347656 381.707031 327.03125 381.320312 326.753906 380.90625 C 326.476562 380.492188 326.242188 380.050781 326.050781 379.589844 C 325.859375 379.128906 325.714844 378.652344 325.617188 378.164062 C 325.523438 377.671875 325.472656 377.179688 325.472656 376.679688 L 325.472656 251.292969 C 325.472656 233.988281 322.066406 219.804688 315.609375 210.28125 C 308.46875 199.75 297.722656 194.636719 282.75 194.636719 C 258.558594 194.636719 242.335938 212.246094 236.996094 229.699219 C 236.957031 229.824219 236.914062 229.949219 236.871094 230.070312 C 235.445312 233.984375 234.628906 239.75 234.628906 245.898438 L 234.628906 376.679688 C 234.628906 377.179688 234.582031 377.671875 234.484375 378.164062 C 234.386719 378.652344 234.242188 379.128906 234.050781 379.589844 C 233.859375 380.050781 233.625 380.492188 233.347656 380.90625 C 233.070312 381.320312 232.753906 381.707031 232.402344 382.058594 C 232.046875 382.414062 231.664062 382.726562 231.25 383.003906 C 230.832031 383.285156 230.394531 383.519531 229.933594 383.707031 C 229.472656 383.898438 228.996094 384.042969 228.507812 384.140625 C 228.015625 384.238281 227.519531 384.289062 227.023438 384.289062 L 187.5 384.289062 C 187 384.289062 186.503906 384.238281 186.015625 384.140625 C 185.527344 384.042969 185.050781 383.898438 184.589844 383.707031 C 184.125 383.519531 183.6875 383.285156 183.273438 383.003906 C 182.855469 382.726562 182.472656 382.414062 182.121094 382.058594 C 181.765625 381.707031 181.449219 381.320312 181.171875 380.90625 C 180.894531 380.492188 180.660156 380.050781 180.46875 379.589844 C 180.277344 379.128906 180.136719 378.652344 180.039062 378.164062 C 179.941406 377.671875 179.890625 377.179688 179.890625 376.679688 L 179.890625 218.03125 C 179.890625 193.773438 179.347656 176.332031 178.113281 159.726562 C 178.078125 159.207031 178.09375 158.6875 178.164062 158.167969 C 178.234375 157.648438 178.355469 157.144531 178.53125 156.648438 C 178.703125 156.15625 178.925781 155.6875 179.199219 155.238281 C 179.46875 154.789062 179.785156 154.375 180.140625 153.992188 C 180.5 153.609375 180.890625 153.269531 181.316406 152.96875 C 181.746094 152.664062 182.199219 152.410156 182.679688 152.203125 C 183.160156 151.996094 183.65625 151.839844 184.167969 151.730469 C 184.679688 151.625 185.199219 151.574219 185.722656 151.574219 L 220.777344 151.574219 C 221.257812 151.574219 221.734375 151.621094 222.203125 151.707031 C 222.675781 151.796875 223.136719 151.929688 223.582031 152.105469 C 224.027344 152.28125 224.457031 152.5 224.859375 152.753906 C 225.265625 153.011719 225.644531 153.304688 225.996094 153.632812 C 226.34375 153.960938 226.660156 154.320312 226.945312 154.707031 C 227.226562 155.097656 227.46875 155.507812 227.675781 155.941406 C 227.878906 156.375 228.042969 156.824219 228.160156 157.289062 C 228.28125 157.753906 228.355469 158.226562 228.386719 158.707031 L 229.375 174.566406 C 234.441406 169.140625 240.117188 164.453125 246.398438 160.496094 C 260.804688 151.425781 277.917969 146.628906 295.851562 146.628906 C 307.859375 146.628906 330.945312 149.261719 350.640625 166.878906 C 370.335938 184.5 380.308594 211.386719 380.308594 246.820312 L 380.308594 376.710938 C 380.308594 377.214844 380.257812 377.710938 380.15625 378.199219 C 380.054688 378.691406 379.910156 379.167969 379.714844 379.628906 C 379.519531 380.09375 379.28125 380.53125 379 380.945312 C 378.71875 381.359375 378.402344 381.742188 378.042969 382.097656 C 377.6875 382.449219 377.300781 382.761719 376.882812 383.039062 C 376.460938 383.3125 376.019531 383.542969 375.554688 383.730469 C 375.089844 383.921875 374.613281 384.0625 374.121094 384.15625 C 373.628906 384.25 373.132812 384.292969 372.628906 384.289062 Z M 340.691406 369.070312 L 365.023438 369.070312 L 365.023438 246.789062 C 365.023438 215.871094 356.75 192.792969 340.425781 178.191406 C 323.902344 163.414062 303.699219 161.816406 295.78125 161.816406 C 261.902344 161.816406 239.90625 180.835938 230.621094 198.625 C 230.296875 199.242188 229.898438 199.804688 229.425781 200.3125 C 228.949219 200.820312 228.414062 201.253906 227.820312 201.613281 C 227.222656 201.972656 226.59375 202.25 225.921875 202.4375 C 225.253906 202.625 224.570312 202.71875 223.875 202.71875 L 222.976562 202.71875 C 222.496094 202.71875 222.023438 202.675781 221.550781 202.585938 C 221.078125 202.496094 220.617188 202.363281 220.171875 202.1875 C 219.726562 202.011719 219.296875 201.792969 218.894531 201.535156 C 218.488281 201.28125 218.109375 200.988281 217.757812 200.660156 C 217.410156 200.328125 217.09375 199.972656 216.808594 199.582031 C 216.527344 199.195312 216.285156 198.78125 216.078125 198.347656 C 215.875 197.914062 215.710938 197.464844 215.59375 197 C 215.472656 196.535156 215.398438 196.0625 215.371094 195.582031 L 213.566406 166.777344 L 193.816406 166.777344 C 194.695312 181.40625 195.109375 197.28125 195.109375 218.03125 L 195.109375 369.070312 L 219.441406 369.070312 L 219.441406 245.898438 C 219.441406 238.023438 220.527344 230.636719 222.527344 225.066406 C 223.503906 221.9375 224.703125 218.898438 226.128906 215.945312 C 227.554688 212.996094 229.1875 210.164062 231.027344 207.453125 C 232.867188 204.742188 234.898438 202.179688 237.117188 199.769531 C 239.335938 197.355469 241.71875 195.121094 244.265625 193.058594 C 246.96875 190.863281 249.835938 188.914062 252.875 187.210938 C 255.910156 185.507812 259.070312 184.074219 262.351562 182.910156 C 265.632812 181.75 268.992188 180.875 272.421875 180.289062 C 275.855469 179.703125 279.3125 179.414062 282.792969 179.417969 C 302.625 179.417969 318.34375 187.136719 328.246094 201.746094 C 336.53125 213.96875 340.746094 230.640625 340.746094 251.292969 Z M 340.691406 369.070312 " fill-opacity="1" fill-rule="nonzero"/></svg>