<svg xmlns="http://www.w3.org/2000/svg" xmlns:xlink="http://www.w3.org/1999/xlink" width="600" zoomAndPan="magnify" viewBox="0 0 450 449.999984" height="600" preserveAspectRatio="xMidYMid meet" version="1.0"><path fill="#ffffff" d="M 327.042969 262.980469 L 326.246094 262.589844 C 320.476562 259.765625 294.359375 246.96875 289.574219 245.246094 C 288.625 244.90625 287.632812 244.566406 286.582031 244.308594 C 285.8125 244.117188 285.019531 243.992188 284.210938 243.992188 C 283.167969 243.992188 282.230469 244.238281 281.40625 244.722656 C 280.402344 245.320312 279.445312 246.285156 278.5625 247.613281 C 277.179688 249.664062 274.800781 252.703125 272.25 255.832031 C 268.472656 260.464844 264.140625 265.5 262.265625 267.613281 C 261.90625 268.035156 261.457031 268.503906 261 268.894531 L 260.972656 268.917969 C 259.746094 269.964844 258.230469 270.707031 256.417969 270.707031 C 255.484375 270.707031 253.765625 270.15625 251.980469 269.445312 C 250.367188 268.796875 248.226562 267.90625 247.277344 267.496094 L 247.257812 267.484375 C 234.0625 261.765625 222.125 253.175781 212.109375 244.28125 C 194.851562 228.949219 183.046875 212.390625 180.667969 208.363281 L 180.402344 207.867188 C 179.746094 206.632812 179.492188 205.667969 179.394531 205.191406 L 179.386719 205.183594 C 179.046875 203.457031 179.460938 201.757812 180.402344 200.425781 C 181.203125 199.191406 182.273438 198.117188 182.933594 197.453125 L 182.945312 197.445312 L 182.933594 197.429688 L 183.253906 197.132812 C 184.816406 195.535156 186.503906 193.507812 188.136719 191.542969 C 189.121094 190.359375 190.074219 189.214844 190.664062 188.527344 C 192.78125 186.074219 193.851562 183.902344 195.078125 181.414062 L 195.71875 180.117188 C 196.679688 178.214844 196.753906 176.472656 196.519531 175.085938 C 196.273438 173.597656 195.609375 172.296875 195.289062 171.664062 C 195.160156 171.417969 195.050781 171.167969 194.964844 170.910156 C 193.269531 167.066406 186.316406 150.34375 182.269531 140.601562 L 179.441406 133.804688 C 178.105469 130.605469 176.664062 128.351562 175.070312 127.007812 C 173.882812 126.007812 172.472656 125.523438 170.792969 125.523438 C 156.355469 125.523438 145.683594 129.851562 138.652344 137.535156 C 131.089844 145.796875 127.367188 158.195312 127.367188 173.53125 C 127.367188 175.71875 127.457031 177.742188 127.625 179.613281 C 130.53125 211.210938 155.222656 245.085938 187.164062 271.1875 C 219.253906 297.410156 258.398438 315.546875 290.03125 315.546875 C 292.546875 315.546875 294.851562 315.453125 296.929688 315.261719 L 296.957031 315.257812 L 296.953125 315.238281 C 301.671875 314.820312 306.703125 312.894531 311.542969 309.972656 C 318.601562 305.710938 325.09375 299.445312 329.671875 292.589844 C 334.015625 286.089844 336.5625 279.210938 336.042969 273.332031 L 336.015625 273.332031 C 335.832031 271.253906 335.246094 269.300781 334.191406 267.550781 L 334.113281 267.414062 C 333.089844 265.925781 330.707031 264.75 327.703125 263.304688 C 327.472656 263.210938 327.253906 263.105469 327.042969 262.984375 Z M 331.625 251.589844 L 332.707031 252.117188 C 337.691406 254.507812 341.65625 256.414062 344.488281 260.859375 L 344.710938 261.203125 C 346.78125 264.632812 347.925781 268.367188 348.269531 272.273438 L 348.246094 272.273438 C 349.023438 281.089844 345.660156 290.726562 339.859375 299.40625 C 334.300781 307.734375 326.425781 315.335938 317.886719 320.488281 C 311.507812 324.339844 304.671875 326.894531 298.011719 327.484375 L 298.007812 327.464844 C 295.226562 327.71875 292.566406 327.84375 290.03125 327.84375 C 255.582031 327.84375 213.535156 308.570312 179.429688 280.699219 C 145.175781 252.710938 118.652344 215.816406 115.421875 180.714844 C 115.1875 178.140625 115.066406 175.742188 115.066406 173.527344 C 115.066406 155.152344 119.867188 139.921875 129.617188 129.265625 C 139.015625 119 152.710938 113.222656 170.792969 113.222656 C 175.4375 113.222656 179.464844 114.65625 182.996094 117.636719 C 186.113281 120.265625 188.675781 124.058594 190.78125 129.097656 L 193.609375 135.890625 C 197.769531 145.90625 205.003906 163.316406 206.113281 165.847656 L 206.242188 166.089844 C 206.839844 167.257812 208.058594 169.65625 208.632812 173.066406 C 209.21875 176.554688 209.046875 180.894531 206.707031 185.585938 L 206.082031 186.84375 C 204.492188 190.070312 203.109375 192.878906 199.9375 196.554688 C 198.9375 197.714844 198.242188 198.554688 197.554688 199.378906 C 196.03125 201.210938 194.472656 203.085938 192.945312 204.738281 C 197.011719 210.605469 206.765625 223.105469 220.28125 235.109375 C 229.480469 243.28125 240.34375 251.128906 252.152344 256.257812 C 252.699219 256.503906 253.777344 256.957031 254.90625 257.417969 C 256.988281 255.011719 259.96875 251.496094 262.738281 248.101562 C 265.101562 245.207031 267.25 242.472656 268.375 240.792969 C 270.304688 237.90625 272.578125 235.6875 275.160156 234.15625 C 277.925781 232.519531 280.953125 231.691406 284.210938 231.691406 C 286.039062 231.691406 287.808594 231.972656 289.511719 232.394531 C 290.9375 232.746094 292.34375 233.230469 293.707031 233.71875 C 299.128906 235.667969 325.746094 248.707031 331.628906 251.59375 Z M 331.625 251.589844 " fill-opacity="1" fill-rule="nonzero"/><path fill="#ffffff" d="M 228.957031 394.5 C 211.660156 394.5 194.613281 391.996094 178.273438 387.128906 C 162.003906 382.277344 146.453125 375.078125 132.085938 365.671875 L 75.433594 383.683594 C 72.207031 384.703125 68.765625 382.917969 67.742188 379.695312 C 67.332031 378.398438 67.378906 377.070312 67.785156 375.878906 L 67.769531 375.871094 L 86.054688 321.929688 C 75.132812 306.964844 66.777344 290.652344 61.152344 273.460938 C 55.496094 256.179688 52.585938 238.039062 52.585938 219.519531 C 52.585938 171.273438 72.375 127.519531 104.324219 95.824219 C 136.269531 64.136719 180.355469 44.507812 228.957031 44.507812 C 277.550781 44.507812 321.632812 64.136719 353.574219 95.824219 C 385.519531 127.515625 405.308594 171.273438 405.308594 219.519531 C 405.308594 267.757812 385.523438 311.503906 353.578125 343.195312 C 321.648438 374.863281 277.570312 394.476562 228.960938 394.476562 L 228.960938 394.5 Z M 181.777344 375.351562 C 196.949219 379.875 212.816406 382.199219 228.957031 382.199219 L 228.957031 382.222656 C 274.195312 382.222656 315.214844 363.96875 344.925781 334.496094 C 374.613281 305.042969 393.003906 264.375 393.003906 219.519531 C 393.003906 174.652344 374.613281 133.976562 344.921875 104.519531 C 315.226562 75.058594 274.207031 56.808594 228.953125 56.808594 C 183.695312 56.808594 142.671875 75.054688 112.96875 104.519531 C 83.277344 133.976562 64.882812 174.65625 64.882812 219.519531 C 64.882812 236.78125 67.582031 253.648438 72.824219 269.664062 C 78.074219 285.699219 85.878906 300.917969 96.089844 314.871094 C 97.238281 316.4375 97.96875 318.230469 98.253906 320.078125 C 98.53125 321.90625 98.375 323.816406 97.753906 325.648438 L 83.285156 368.332031 L 128.601562 353.925781 C 129.273438 353.714844 129.871094 353.566406 130.390625 353.488281 L 130.394531 353.503906 C 131.082031 353.398438 131.675781 353.34375 132.175781 353.34375 C 133.296875 353.34375 134.4375 353.511719 135.554688 353.847656 C 136.648438 354.175781 137.695312 354.65625 138.652344 355.289062 C 152.078125 364.097656 166.597656 370.828125 181.777344 375.351562 Z M 132.214844 365.625 L 132.234375 365.625 L 132.214844 365.628906 C 132.25 365.621094 132.390625 365.574219 132.300781 365.601562 Z M 132.234375 365.625 C 132.265625 365.617188 132.289062 365.613281 132.257812 365.613281 Z M 132.234375 365.625 " fill-opacity="1" fill-rule="nonzero"/><path fill="#ffffff" d="M 228.957031 12.378906 C 171.382812 12.378906 119.1875 35.613281 81.394531 73.117188 C 43.609375 110.621094 20.207031 162.402344 20.207031 219.519531 C 20.207031 238.046875 22.671875 256.320312 27.460938 273.871094 C 32.265625 291.449219 39.421875 308.398438 48.804688 324.253906 C 49.765625 325.878906 49.890625 327.769531 49.308594 329.421875 L 12.703125 437.390625 L 125.390625 401.582031 C 127.027344 401.066406 128.71875 401.269531 130.121094 402.015625 C 145.191406 410.066406 161.269531 416.226562 177.898438 420.367188 C 194.484375 424.503906 211.652344 426.628906 228.957031 426.628906 C 286.527344 426.628906 338.71875 403.398438 376.503906 365.898438 C 414.300781 328.390625 437.710938 276.609375 437.710938 219.519531 L 437.6875 219.519531 C 437.6875 162.402344 414.285156 110.617188 376.503906 73.117188 C 338.71875 35.613281 286.527344 12.378906 228.957031 12.378906 Z M 72.746094 64.421875 C 112.78125 24.6875 168.039062 0.078125 228.957031 0.078125 C 289.875 0.078125 345.125 24.6875 385.15625 64.421875 C 425.191406 104.160156 449.988281 159.023438 449.988281 219.519531 L 449.964844 219.523438 C 449.964844 280.023438 425.175781 334.878906 385.15625 374.597656 C 345.125 414.324219 289.875 438.933594 228.964844 438.933594 C 210.734375 438.933594 192.582031 436.675781 174.96875 432.285156 C 158.222656 428.109375 141.980469 421.988281 126.652344 414.03125 L 15.5625 449.335938 C 14.890625 449.550781 14.296875 449.695312 13.773438 449.777344 L 13.773438 449.757812 C 13.082031 449.867188 12.488281 449.917969 11.988281 449.917969 C 10.417969 449.917969 8.859375 449.601562 7.410156 448.992188 L 7.417969 448.972656 C 5.980469 448.367188 4.664062 447.492188 3.5625 446.367188 C 1.996094 444.773438 0.945312 442.808594 0.464844 440.722656 L 0.464844 440.699219 C -0.0078125 438.613281 0.0820312 436.398438 0.792969 434.292969 L 36.804688 328.0625 C 27.597656 312.023438 20.5 294.890625 15.640625 277.097656 C 10.53125 258.382812 7.902344 239.027344 7.902344 219.527344 C 7.902344 159.03125 32.703125 104.167969 72.742188 64.429688 Z M 11.949219 437.632812 L 11.921875 437.636719 L 11.949219 437.628906 C 11.917969 437.636719 11.773438 437.6875 11.859375 437.65625 L 11.953125 437.632812 Z M 11.921875 437.636719 C 11.894531 437.644531 11.878906 437.648438 11.902344 437.644531 Z M 11.921875 437.636719 " fill-opacity="1" fill-rule="nonzero"/><path fill="#ffffff" d="M 228.953125 86.648438 C 225.554688 86.648438 222.804688 83.894531 222.804688 80.5 C 222.804688 77.101562 225.558594 74.351562 228.953125 74.351562 C 269.257812 74.351562 305.820312 90.632812 332.3125 116.917969 C 358.8125 143.203125 375.222656 179.5 375.222656 219.515625 C 375.222656 222.914062 372.46875 225.664062 369.074219 225.664062 C 365.675781 225.664062 362.925781 222.910156 362.925781 219.515625 C 362.925781 182.882812 347.90625 149.664062 323.667969 125.613281 C 299.417969 101.550781 265.914062 86.652344 228.957031 86.652344 Z M 228.953125 86.648438 " fill-opacity="1" fill-rule="nonzero"/></svg>