<svg xmlns="http://www.w3.org/2000/svg" xmlns:xlink="http://www.w3.org/1999/xlink" width="600" zoomAndPan="magnify" viewBox="0 0 450 449.999984" height="600" preserveAspectRatio="xMidYMid meet" version="1.0"><path fill="#f73140" d="M 450 225 C 450 228.683594 449.910156 232.363281 449.730469 236.039062 C 449.546875 239.71875 449.277344 243.390625 448.917969 247.054688 C 448.554688 250.71875 448.105469 254.371094 447.566406 258.015625 C 447.023438 261.65625 446.394531 265.285156 445.675781 268.894531 C 444.957031 272.507812 444.152344 276.097656 443.257812 279.671875 C 442.363281 283.242188 441.378906 286.789062 440.3125 290.3125 C 439.242188 293.835938 438.085938 297.332031 436.847656 300.800781 C 435.605469 304.265625 434.28125 307.703125 432.871094 311.105469 C 431.464844 314.503906 429.972656 317.871094 428.398438 321.199219 C 426.824219 324.527344 425.167969 327.816406 423.433594 331.0625 C 421.695312 334.3125 419.882812 337.515625 417.988281 340.671875 C 416.097656 343.832031 414.125 346.941406 412.082031 350.003906 C 410.035156 353.066406 407.914062 356.074219 405.722656 359.03125 C 403.527344 361.988281 401.261719 364.890625 398.925781 367.738281 C 396.589844 370.585938 394.1875 373.371094 391.714844 376.101562 C 389.242188 378.828125 386.703125 381.496094 384.097656 384.097656 C 381.496094 386.703125 378.828125 389.242188 376.101562 391.714844 C 373.371094 394.1875 370.585938 396.589844 367.738281 398.925781 C 364.890625 401.261719 361.988281 403.527344 359.03125 405.722656 C 356.074219 407.914062 353.066406 410.035156 350.003906 412.082031 C 346.941406 414.125 343.832031 416.097656 340.671875 417.988281 C 337.515625 419.882812 334.3125 421.695312 331.0625 423.433594 C 327.816406 425.167969 324.527344 426.824219 321.199219 428.398438 C 317.871094 429.972656 314.503906 431.464844 311.105469 432.871094 C 307.703125 434.28125 304.265625 435.605469 300.800781 436.847656 C 297.332031 438.085938 293.835938 439.242188 290.3125 440.3125 C 286.789062 441.378906 283.242188 442.363281 279.671875 443.257812 C 276.097656 444.152344 272.507812 444.957031 268.894531 445.675781 C 265.285156 446.394531 261.65625 447.023438 258.015625 447.566406 C 254.371094 448.105469 250.71875 448.554688 247.054688 448.917969 C 243.390625 449.277344 239.71875 449.546875 236.039062 449.730469 C 232.363281 449.910156 228.683594 450 225 450 C 221.316406 450 217.636719 449.910156 213.960938 449.730469 C 210.28125 449.546875 206.609375 449.277344 202.945312 448.917969 C 199.28125 448.554688 195.628906 448.105469 191.984375 447.566406 C 188.34375 447.023438 184.714844 446.394531 181.105469 445.675781 C 177.492188 444.957031 173.902344 444.152344 170.328125 443.257812 C 166.757812 442.363281 163.210938 441.378906 159.6875 440.3125 C 156.164062 439.242188 152.667969 438.085938 149.199219 436.847656 C 145.734375 435.605469 142.296875 434.28125 138.894531 432.871094 C 135.496094 431.464844 132.128906 429.972656 128.800781 428.398438 C 125.472656 426.824219 122.183594 425.167969 118.9375 423.433594 C 115.6875 421.695312 112.484375 419.882812 109.328125 417.988281 C 106.167969 416.097656 103.058594 414.125 99.996094 412.082031 C 96.933594 410.035156 93.925781 407.914062 90.96875 405.722656 C 88.011719 403.527344 85.109375 401.261719 82.261719 398.925781 C 79.414062 396.589844 76.628906 394.1875 73.898438 391.714844 C 71.171875 389.242188 68.503906 386.703125 65.902344 384.097656 C 63.296875 381.496094 60.757812 378.828125 58.285156 376.101562 C 55.8125 373.371094 53.410156 370.585938 51.074219 367.738281 C 48.738281 364.890625 46.472656 361.988281 44.277344 359.03125 C 42.085938 356.074219 39.964844 353.066406 37.917969 350.003906 C 35.875 346.941406 33.902344 343.832031 32.011719 340.671875 C 30.117188 337.515625 28.304688 334.3125 26.566406 331.0625 C 24.832031 327.816406 23.175781 324.527344 21.601562 321.199219 C 20.027344 317.871094 18.535156 314.503906 17.128906 311.105469 C 15.71875 307.703125 14.394531 304.265625 13.152344 300.800781 C 11.910156 297.332031 10.757812 293.835938 9.6875 290.3125 C 8.621094 286.789062 7.636719 283.242188 6.742188 279.671875 C 5.847656 276.097656 5.042969 272.507812 4.324219 268.894531 C 3.605469 265.285156 2.976562 261.65625 2.433594 258.015625 C 1.894531 254.371094 1.445312 250.71875 1.082031 247.054688 C 0.722656 243.390625 0.453125 239.71875 0.269531 236.039062 C 0.0898438 232.363281 0 228.683594 0 225 C 0 221.316406 0.0898438 217.636719 0.269531 213.960938 C 0.453125 210.28125 0.722656 206.609375 1.082031 202.945312 C 1.445312 199.28125 1.894531 195.628906 2.433594 191.984375 C 2.976562 188.34375 3.605469 184.714844 4.324219 181.105469 C 5.042969 177.492188 5.847656 173.902344 6.742188 170.328125 C 7.636719 166.757812 8.621094 163.210938 9.6875 159.6875 C 10.757812 156.164062 11.910156 152.667969 13.152344 149.199219 C 14.394531 145.734375 15.71875 142.296875 17.128906 138.894531 C 18.535156 135.496094 20.027344 132.128906 21.601562 128.800781 C 23.175781 125.472656 24.832031 122.183594 26.566406 118.9375 C 28.304688 115.6875 30.117188 112.484375 32.011719 109.328125 C 33.902344 106.167969 35.875 103.058594 37.917969 99.996094 C 39.964844 96.933594 42.085938 93.925781 44.277344 90.96875 C 46.472656 88.011719 48.738281 85.109375 51.074219 82.261719 C 53.410156 79.414062 55.8125 76.628906 58.285156 73.898438 C 60.757812 71.171875 63.296875 68.503906 65.902344 65.902344 C 68.503906 63.296875 71.171875 60.757812 73.898438 58.285156 C 76.628906 55.8125 79.414062 53.410156 82.261719 51.074219 C 85.109375 48.738281 88.011719 46.472656 90.96875 44.277344 C 93.925781 42.085938 96.933594 39.964844 99.996094 37.917969 C 103.058594 35.875 106.167969 33.902344 109.328125 32.011719 C 112.484375 30.117188 115.6875 28.304688 118.9375 26.566406 C 122.183594 24.832031 125.472656 23.175781 128.800781 21.601562 C 132.128906 20.027344 135.496094 18.535156 138.894531 17.128906 C 142.296875 15.71875 145.734375 14.394531 149.199219 13.152344 C 152.667969 11.910156 156.164062 10.757812 159.6875 9.6875 C 163.210938 8.621094 166.757812 7.636719 170.328125 6.742188 C 173.902344 5.847656 177.492188 5.042969 181.105469 4.324219 C 184.714844 3.605469 188.34375 2.976562 191.984375 2.433594 C 195.628906 1.894531 199.28125 1.445312 202.945312 1.082031 C 206.609375 0.722656 210.28125 0.453125 213.960938 0.269531 C 217.636719 0.0898438 221.316406 0 225 0 C 228.683594 0 232.363281 0.0898438 236.039062 0.269531 C 239.71875 0.453125 243.390625 0.722656 247.054688 1.082031 C 250.71875 1.445312 254.371094 1.894531 258.015625 2.433594 C 261.65625 2.976562 265.285156 3.605469 268.894531 4.324219 C 272.507812 5.042969 276.097656 5.847656 279.671875 6.742188 C 283.242188 7.636719 286.789062 8.621094 290.3125 9.6875 C 293.835938 10.757812 297.332031 11.910156 300.800781 13.152344 C 304.265625 14.394531 307.703125 15.71875 311.105469 17.128906 C 314.503906 18.535156 317.871094 20.027344 321.199219 21.601562 C 324.527344 23.175781 327.816406 24.832031 331.0625 26.566406 C 334.3125 28.304688 337.515625 30.117188 340.671875 32.011719 C 343.832031 33.902344 346.941406 35.875 350.003906 37.917969 C 353.066406 39.964844 356.074219 42.085938 359.03125 44.277344 C 361.988281 46.472656 364.890625 48.738281 367.738281 51.074219 C 370.585938 53.410156 373.371094 55.8125 376.101562 58.285156 C 378.828125 60.757812 381.496094 63.296875 384.097656 65.902344 C 386.703125 68.503906 389.242188 71.171875 391.714844 73.898438 C 394.1875 76.628906 396.589844 79.414062 398.925781 82.261719 C 401.261719 85.109375 403.527344 88.011719 405.722656 90.96875 C 407.914062 93.925781 410.035156 96.933594 412.082031 99.996094 C 414.125 103.058594 416.097656 106.167969 417.988281 109.328125 C 419.882812 112.484375 421.695312 115.6875 423.433594 118.9375 C 425.167969 122.183594 426.824219 125.472656 428.398438 128.800781 C 429.972656 132.128906 431.464844 135.496094 432.871094 138.894531 C 434.28125 142.296875 435.605469 145.734375 436.847656 149.199219 C 438.089844 152.667969 439.242188 156.164062 440.3125 159.6875 C 441.378906 163.210938 442.363281 166.757812 443.257812 170.328125 C 444.152344 173.902344 444.957031 177.492188 445.675781 181.105469 C 446.394531 184.714844 447.023438 188.34375 447.566406 191.984375 C 448.105469 195.628906 448.554688 199.28125 448.917969 202.945312 C 449.277344 206.609375 449.546875 210.28125 449.730469 213.960938 C 449.910156 217.636719 450 221.316406 450 225 Z M 450 225 " fill-opacity="1" fill-rule="nonzero"/><path fill="#e5253c" d="M 450 225 C 450 349.265625 349.261719 450.003906 225 450.003906 C 159.089844 450.003906 99.800781 421.664062 58.652344 376.507812 C 94.640625 400.933594 138.085938 415.203125 184.847656 415.203125 C 309.109375 415.203125 409.847656 314.464844 409.847656 190.203125 C 409.847656 131.84375 387.628906 78.675781 351.195312 38.699219 C 410.824219 79.160156 450 147.503906 450 225 Z M 450 225 " fill-opacity="1" fill-rule="nonzero"/><path fill="#ffffff" d="M 164.191406 330.648438 C 162.582031 330.640625 160.988281 330.480469 159.410156 330.167969 C 157.832031 329.859375 156.292969 329.402344 154.800781 328.796875 C 153.308594 328.195312 151.886719 327.457031 150.535156 326.585938 C 149.183594 325.714844 147.925781 324.722656 146.761719 323.609375 C 145.539062 322.445312 144.449219 321.167969 143.492188 319.78125 C 142.53125 318.394531 141.722656 316.921875 141.0625 315.371094 C 140.40625 313.816406 139.910156 312.214844 139.578125 310.558594 C 139.246094 308.90625 139.085938 307.234375 139.097656 305.546875 L 139.097656 144.453125 C 139.085938 142.765625 139.246094 141.09375 139.578125 139.441406 C 139.910156 137.789062 140.40625 136.183594 141.066406 134.632812 C 141.722656 133.078125 142.53125 131.609375 143.492188 130.222656 C 144.453125 128.835938 145.539062 127.558594 146.761719 126.394531 C 147.925781 125.28125 149.183594 124.289062 150.535156 123.417969 C 151.886719 122.546875 153.308594 121.808594 154.800781 121.207031 C 156.292969 120.605469 157.832031 120.148438 159.410156 119.835938 C 160.988281 119.523438 162.582031 119.363281 164.191406 119.355469 C 168.664062 119.371094 172.832031 120.496094 176.699219 122.742188 L 316.21875 203.289062 C 317.167969 203.835938 318.074219 204.445312 318.945312 205.113281 C 319.8125 205.777344 320.636719 206.5 321.410156 207.273438 C 322.183594 208.046875 322.90625 208.871094 323.574219 209.738281 C 324.238281 210.609375 324.847656 211.515625 325.394531 212.464844 C 325.941406 213.414062 326.425781 214.394531 326.84375 215.40625 C 327.265625 216.417969 327.617188 217.453125 327.898438 218.511719 C 328.183594 219.570312 328.394531 220.640625 328.539062 221.726562 C 328.683594 222.8125 328.753906 223.90625 328.753906 225 C 328.753906 226.09375 328.683594 227.1875 328.539062 228.273438 C 328.394531 229.359375 328.183594 230.429688 327.898438 231.488281 C 327.617188 232.546875 327.265625 233.582031 326.84375 234.59375 C 326.425781 235.605469 325.941406 236.585938 325.394531 237.535156 C 324.847656 238.484375 324.238281 239.390625 323.574219 240.261719 C 322.90625 241.128906 322.183594 241.953125 321.410156 242.726562 C 320.636719 243.5 319.8125 244.222656 318.945312 244.886719 C 318.074219 245.554688 317.167969 246.164062 316.21875 246.710938 L 176.699219 327.257812 C 172.832031 329.503906 168.664062 330.628906 164.191406 330.644531 Z M 164.191406 330.648438 " fill-opacity="1" fill-rule="nonzero"/></svg>