<svg xmlns="http://www.w3.org/2000/svg" xmlns:xlink="http://www.w3.org/1999/xlink" width="600" zoomAndPan="magnify" viewBox="0 0 450 449.999984" height="600" preserveAspectRatio="xMidYMid meet" version="1.0"><path fill="#000000" d="M 224.722656 0 C 349.070312 0 450 100.371094 450 224.722656 C 450 349.070312 349.070312 450 224.722656 450 C 100.371094 450 0 349.070312 0 224.722656 C 0 100.371094 100.371094 0 224.722656 0 Z M 252.601562 224.722656 L 366.914062 339.589844 L 311.710938 339.589844 L 224.722656 252.601562 L 138.289062 339.589844 L 83.085938 339.589844 L 197.398438 224.722656 L 83.085938 110.410156 L 138.289062 110.410156 L 224.722656 197.398438 L 311.710938 110.410156 L 366.914062 110.410156 Z M 315.054688 117.65625 L 224.722656 207.992188 L 134.945312 117.65625 L 100.929688 117.65625 L 207.992188 224.722656 L 100.929688 331.785156 L 134.945312 331.785156 L 224.722656 242.007812 L 315.054688 331.785156 L 349.070312 331.785156 L 242.007812 224.722656 L 349.070312 117.65625 Z M 315.054688 117.65625 " fill-opacity="1" fill-rule="evenodd"/></svg>